<svg xmlns="http://www.w3.org/2000/svg" viewBox="0 0 74.94 149.72"><defs><style>.cls-1{fill:#e30613;}.cls-2{fill:#fff;}.cls-3{fill:none;stroke:#1d1d1b;stroke-miterlimit:10;}</style></defs><title>D</title><g id="Layer_2" data-name="Layer 2"><g id="Layer_1-2" data-name="Layer 1"><polygon class="cls-1" points="52.58 99.96 74.26 124.74 64.11 131.29 42.43 106.51 52.58 99.96"/><polygon class="cls-1" points="74.26 124.74 56.37 142.82 47 148.58 64.11 131.29 74.26 124.74"/><polygon class="cls-1" points="73.46 40.74 73.62 42.1 63.46 48.65 62.05 36.31 72.2 29.76 73.46 40.74"/><polygon class="cls-1" points="73.62 42.1 56.71 64.17 46.56 70.72 63.46 48.65 73.62 42.1"/><polygon class="cls-1" points="72.2 29.76 62.05 36.31 53.18 33.31 38.64 28.39 48.8 21.84 63.33 26.76 72.2 29.76"/><polygon class="cls-1" points="56.71 64.17 70.13 82.76 59.98 89.3 46.56 70.72 56.71 64.17"/><polygon class="cls-1" points="70.13 82.76 52.58 99.96 42.43 106.51 59.98 89.3 70.13 82.76"/><polygon class="cls-2" points="42.43 106.51 64.11 131.29 47 148.58 0.5 148.58 0.5 7.05 29.11 8.98 38.64 28.39 53.18 33.31 62.05 36.31 63.46 48.65 46.56 70.72 59.98 89.3 42.43 106.51"/><polygon class="cls-1" points="39.26 2.43 48.8 21.84 38.64 28.39 29.11 8.98 39.26 2.43"/><polygon class="cls-1" points="39.26 2.43 29.11 8.98 0.5 7.05 10.6 0.51 39.26 2.43"/><polyline class="cls-3" points="0.44 7.05 0.5 7.05 29.11 8.98 38.64 28.39 53.18 33.31 62.05 36.31 63.46 48.65"/><polyline class="cls-3" points="73.62 42.1 56.71 64.17 70.13 82.76 52.58 99.96 74.26 124.74 56.37 142.82 47 148.58 0.5 148.58 0.5 7.05 10.6 0.51 39.26 2.43 48.8 21.84 63.33 26.76 72.2 29.76 73.46 40.74 73.62 42.1"/><polyline class="cls-3" points="46.22 149.37 47 148.58 64.11 131.29 42.43 106.51 59.98 89.3 46.56 70.72 63.46 48.65 73.62 42.1"/><line class="cls-3" x1="59.98" y1="89.3" x2="70.13" y2="82.76"/><line class="cls-3" x1="42.43" y1="106.51" x2="52.58" y2="99.96"/><line class="cls-3" x1="64.11" y1="131.29" x2="74.26" y2="124.74"/><line class="cls-3" x1="46.56" y1="70.72" x2="56.71" y2="64.17"/><line class="cls-3" x1="62.05" y1="36.31" x2="72.2" y2="29.76"/><line class="cls-3" x1="38.64" y1="28.39" x2="48.8" y2="21.84"/><line class="cls-3" x1="29.11" y1="8.98" x2="39.26" y2="2.43"/></g></g></svg>