<svg xmlns="http://www.w3.org/2000/svg" viewBox="0 0 139.31 225.96"><defs><style>.cls-1{fill:#fff;}.cls-2{fill:#1d1d1b;}.cls-3,.cls-4,.cls-5{fill:none;stroke-miterlimit:10;}.cls-3,.cls-4{stroke:#1d1d1b;}.cls-4{stroke-width:0.25px;}.cls-5{stroke:#fff;stroke-width:0.5px;}</style></defs><title>Asset 2</title><g id="Layer_2" data-name="Layer 2"><g id="Layer_1-2" data-name="Layer 1"><polygon class="cls-1" points="133.81 179.61 136.69 179.61 138.81 179.61 138.81 194.73 136.69 194.73 136.69 198.36 133.69 198.36 133.02 196.36 133.02 190.73 130.9 190.73 130.9 177.86 133.81 177.86 133.81 179.61"/><polygon class="cls-1" points="133.81 156.61 136.69 156.61 138.81 156.61 138.81 179.61 136.69 179.61 133.81 179.61 133.81 177.86 130.9 177.86 130.9 154.86 133.81 154.86 133.81 156.61"/><polygon class="cls-1" points="135.81 129.44 138.81 129.44 138.81 156.61 136.69 156.61 133.81 156.61 133.81 154.86 130.9 154.86 130.9 123.44 133.14 123.44 133.14 129.06 135.81 129.44"/><polygon class="cls-1" points="133.81 72.22 136.69 72.22 138.81 72.22 138.81 129.44 135.81 129.44 133.14 129.06 133.14 123.44 130.9 123.44 130.9 70.47 133.81 70.47 133.81 72.22"/><polygon class="cls-1" points="130.9 70.47 130.9 29.47 133.69 29.47 136.57 29.47 136.57 28.22 138.81 28.22 138.81 72.22 136.69 72.22 133.81 72.22 133.81 70.47 130.9 70.47"/><polygon class="cls-1" points="130.9 29.47 130.9 8.12 138.81 0.5 138.81 28.22 136.57 28.22 136.57 29.47 133.69 29.47 130.9 29.47"/><polygon class="cls-1" points="130.9 225.46 130.9 190.73 133.02 190.73 133.02 196.36 133.69 198.36 136.69 198.36 136.69 194.73 138.81 194.73 138.81 211.72 130.9 225.46"/><path class="cls-1" d="M89.51,90.28A34.34,34.34,0,0,0,50,34.81h0A34.34,34.34,0,1,0,89.51,90.28ZM130.9,190.73v34.73H.5V8.12H130.9V190.73ZM123.66,117v-3.19H110.6a4.43,4.43,0,1,0,0,3.19Z"/><path class="cls-2" d="M110.9,115.36a4.41,4.41,0,0,0-.3-1.59h13.06V117H110.6A4.5,4.5,0,0,0,110.9,115.36Z"/><path class="cls-2" d="M110.6,113.77a4.41,4.41,0,0,1,.3,1.59,4.5,4.5,0,0,1-.3,1.6h-4.13v-3.19Z"/><path class="cls-2" d="M106.47,119.79a4.43,4.43,0,1,1,4.13-6h-4.13V117h4.13A4.42,4.42,0,0,1,106.47,119.79Z"/><polygon class="cls-1" points="130.9 8.12 73.89 8.12 73.89 5.41 77.21 5.41 77.21 2.54 77.21 0.5 138.23 0.5 138.81 0.5 130.9 8.12"/><polygon class="cls-1" points="53.47 5.2 53.14 2.54 48.97 2.54 48.97 0.5 77.21 0.5 77.21 2.54 77.21 5.41 73.89 5.41 73.89 8.12 53.47 8.12 53.47 5.2"/><polygon class="cls-1" points="53.47 8.12 30.89 8.12 30.89 5.41 31.64 5.41 31.64 2.54 31.64 0.5 48.97 0.5 48.97 2.54 53.14 2.54 53.47 5.2 53.47 8.12"/><path class="cls-1" d="M66.22,99.39A34.34,34.34,0,0,1,49.94,34.82,34.33,34.33,0,0,0,89.51,90.28,34.18,34.18,0,0,1,66.22,99.39Z"/><polygon class="cls-1" points="30.89 8.12 0.5 8.12 14.31 0.5 31.64 0.5 31.64 2.54 31.64 5.41 30.89 5.41 30.89 8.12"/><polygon class="cls-3" points="130.9 225.46 0.5 225.46 0.5 8.12 30.89 8.12 53.47 8.12 73.89 8.12 130.9 8.12 130.9 29.47 130.9 70.47 130.9 123.44 130.9 154.86 130.9 177.86 130.9 190.73 130.9 225.46"/><path class="cls-4" d="M110.6,117a4.43,4.43,0,1,1,0-3.19"/><polygon class="cls-5" points="110.6 113.77 123.66 113.77 123.66 116.96 110.6 116.96 106.47 116.96 106.47 113.77 110.6 113.77"/><line class="cls-3" x1="138.81" y1="0.5" x2="130.9" y2="8.12"/><polyline class="cls-3" points="0.5 8.12 14.31 0.5 31.64 0.5 48.97 0.5 77.21 0.5 138.23 0.5"/><polyline class="cls-3" points="130.9 225.46 138.81 211.72 138.81 194.73 138.81 179.61 138.81 156.61 138.81 129.44 138.81 72.22 138.81 28.22 138.81 0.5 138.23 0.5"/><line class="cls-3" x1="132.9" y1="11.05" x2="132.9" y2="16.05"/><line class="cls-3" x1="136.57" y1="7.55" x2="136.57" y2="11.72"/><line class="cls-3" x1="134.85" y1="19.72" x2="134.85" y2="24.39"/><polyline class="cls-3" points="136.57 28.22 136.57 29.47 136.57 31.39"/><line class="cls-3" x1="133.69" y1="29.47" x2="133.69" y2="35.1"/><line class="cls-3" x1="135.57" y1="37.97" x2="135.57" y2="42.34"/><line class="cls-3" x1="132.9" y1="42.34" x2="132.9" y2="47.97"/><line class="cls-3" x1="136.57" y1="46.34" x2="136.57" y2="50.72"/><line class="cls-3" x1="133.02" y1="54.05" x2="133.02" y2="59.05"/><line class="cls-3" x1="136.69" y1="56.55" x2="136.69" y2="60.72"/><line class="cls-3" x1="134.97" y1="62.72" x2="134.97" y2="67.39"/><line class="cls-3" x1="136.69" y1="72.22" x2="136.69" y2="75.39"/><polyline class="cls-3" points="133.81 70.47 133.81 72.22 133.81 76.1"/><line class="cls-3" x1="135.69" y1="78.97" x2="135.69" y2="83.34"/><line class="cls-3" x1="133.02" y1="83.34" x2="133.02" y2="88.97"/><line class="cls-3" x1="136.69" y1="87.34" x2="136.69" y2="91.72"/><line class="cls-3" x1="53.47" y1="5.2" x2="58.47" y2="5.2"/><line class="cls-3" x1="48.97" y1="2.54" x2="53.14" y2="2.54"/><line class="cls-3" x1="61.14" y1="4.25" x2="65.81" y2="4.25"/><line class="cls-3" x1="69.64" y1="2.54" x2="72.81" y2="2.54"/><polyline class="cls-3" points="73.89 5.41 77.21 5.41 79.51 5.41"/><line class="cls-3" x1="77.21" y1="2.54" x2="81.58" y2="2.54"/><line class="cls-3" x1="7.47" y1="6.2" x2="15.32" y2="6.2"/><line class="cls-3" x1="15.32" y1="3.42" x2="19.49" y2="3.42"/><line class="cls-3" x1="22.14" y1="5.25" x2="26.81" y2="5.25"/><line class="cls-3" x1="31.64" y1="2.54" x2="34.81" y2="2.54"/><polyline class="cls-3" points="30.89 5.41 31.64 5.41 36.51 5.41"/><line class="cls-3" x1="38.21" y1="3.42" x2="42.59" y2="3.42"/><line class="cls-3" x1="83.76" y1="5.2" x2="89.39" y2="5.2"/><line class="cls-3" x1="87.76" y1="2.54" x2="92.14" y2="2.54"/><line class="cls-3" x1="95.47" y1="6.09" x2="100.47" y2="6.09"/><line class="cls-3" x1="97.97" y1="2.42" x2="102.14" y2="2.42"/><line class="cls-3" x1="104.14" y1="4.14" x2="108.81" y2="4.14"/><line class="cls-3" x1="113.64" y1="2.42" x2="116.81" y2="2.42"/><line class="cls-3" x1="111.89" y1="5.29" x2="117.51" y2="5.29"/><line class="cls-3" x1="119.39" y1="3.42" x2="123.76" y2="3.42"/><line class="cls-3" x1="122.76" y1="6.09" x2="128.39" y2="6.09"/><line class="cls-3" x1="128.76" y1="2.42" x2="133.14" y2="2.42"/><line class="cls-3" x1="133.14" y1="94.15" x2="133.14" y2="99.15"/><line class="cls-3" x1="136.81" y1="96.65" x2="136.81" y2="100.81"/><line class="cls-3" x1="135.09" y1="102.81" x2="135.09" y2="107.48"/><line class="cls-3" x1="136.81" y1="112.31" x2="136.81" y2="115.48"/><line class="cls-3" x1="133.93" y1="110.56" x2="133.93" y2="116.19"/><line class="cls-3" x1="135.81" y1="119.06" x2="135.81" y2="123.44"/><line class="cls-3" x1="133.14" y1="123.44" x2="133.14" y2="129.06"/><line class="cls-3" x1="135.81" y1="129.44" x2="135.81" y2="133.81"/><line class="cls-3" x1="133.02" y1="138.44" x2="133.02" y2="143.44"/><line class="cls-3" x1="136.69" y1="140.94" x2="136.69" y2="145.11"/><line class="cls-3" x1="134.97" y1="147.11" x2="134.97" y2="151.78"/><line class="cls-3" x1="136.69" y1="156.61" x2="136.69" y2="159.78"/><polyline class="cls-3" points="133.81 154.86 133.81 156.61 133.81 160.48"/><line class="cls-3" x1="135.69" y1="163.36" x2="135.69" y2="167.73"/><line class="cls-3" x1="133.02" y1="167.73" x2="133.02" y2="173.36"/><line class="cls-3" x1="136.69" y1="171.73" x2="136.69" y2="176.11"/><line class="cls-3" x1="136.69" y1="179.61" x2="136.69" y2="182.78"/><polyline class="cls-3" points="133.81 177.86 133.81 179.61 133.81 183.48"/><line class="cls-3" x1="135.69" y1="186.36" x2="135.69" y2="190.73"/><line class="cls-3" x1="133.02" y1="190.73" x2="133.02" y2="196.36"/><polyline class="cls-3" points="136.69 194.73 136.69 198.36 136.69 199.11"/><line class="cls-3" x1="133.69" y1="198.36" x2="133.69" y2="202.73"/><line class="cls-3" x1="133.02" y1="210.73" x2="133.02" y2="216.36"/><line class="cls-3" x1="136.69" y1="206.73" x2="136.69" y2="211.11"/><line class="cls-3" x1="44.65" y1="6.2" x2="47.76" y2="6.2"/><line class="cls-3" x1="25.57" y1="2.42" x2="28.07" y2="2.42"/><path class="cls-3" d="M50,34.81A34.34,34.34,0,1,1,31.89,65.05,34.17,34.17,0,0,1,50,34.81"/><path class="cls-3" d="M90,90l-.52.28A34.33,34.33,0,0,1,49.94,34.82h0"/><path class="cls-3" d="M58.47,94.39a13.78,13.78,0,0,0,7.23,2.26"/><path class="cls-3" d="M47.57,89.53a16.2,16.2,0,0,0,2.25,1.61"/><path class="cls-3" d="M39.89,83.34a18.44,18.44,0,0,0,2.76,3.38"/><path class="cls-3" d="M45.24,84.14a32.09,32.09,0,0,0,2.66,2.58"/><path class="cls-3" d="M38.89,77.14a19.7,19.7,0,0,0,1.76,3.16"/><path class="cls-3" d="M50.4,93c1.17.58,2.5,1.42,2.5,1.42"/><path class="cls-3" d="M51.15,89a39.15,39.15,0,0,0,3.42,2.17"/><path class="cls-3" d="M53.24,92.14c1.33.75,2.66,1.54,2.66,1.54"/><path class="cls-3" d="M34.24,67.39a32.23,32.23,0,0,0,1.5,6.41"/><path class="cls-3" d="M37.4,69.22c.34,1.33,1.49,4.58,1.49,4.58"/><path class="cls-3" d="M36.74,59.05a30.93,30.93,0,0,0,0,6"/><path class="cls-3" d="M37,55.39A43.08,43.08,0,0,1,39.39,48"/><path class="cls-3" d="M35,56.72a21.6,21.6,0,0,0-.75,4.75"/></g></g></svg>