<svg xmlns="http://www.w3.org/2000/svg" viewBox="0 0 139.92 176.38"><defs><style>.cls-1{fill:#e30613;}.cls-2{fill:#fff;}.cls-3{fill:#1d1d1b;}.cls-4,.cls-5,.cls-6,.cls-7{fill:none;}.cls-4,.cls-5,.cls-6{stroke:#1d1d1b;}.cls-4,.cls-6,.cls-7{stroke-miterlimit:10;}.cls-5{stroke-linecap:round;stroke-linejoin:round;}.cls-6{stroke-width:0.25px;}.cls-7{stroke:#fff;stroke-width:0.5px;}</style></defs><title>C</title><g id="Layer_2" data-name="Layer 2"><g id="Layer_1-2" data-name="Layer 1"><polygon class="cls-1" points="88.54 91.18 92.51 85.44 92.52 85.43 97.25 78.57 97.4 78.67 139.52 112.77 138.91 113.53 130.92 125.51 130.9 125.53 119.65 116.42 123.65 116.42 123.65 113.24 115.72 113.24 88.69 91.35 88.54 91.18"/><polygon class="cls-2" points="138.91 113.53 138.8 163.14 130.95 175.74 130.95 125.53 130.92 125.51 138.91 113.53"/><path class="cls-2" d="M20.4,35l19.74,3.62,9.67-6.88,25.1-17.85h25.26L93.94,36.7,105.71,58,99.9,63.86a34.34,34.34,0,1,0-34.23,41.28h.6a34.15,34.15,0,0,0,22.27-8.2l.15.17,27,21.89h-5.13a4.43,4.43,0,1,0,0,3.18h9.06l11.25,9.11,0,0,0,0v50.21l0,.08-26.47-5.85L94.1,156.46l-28.4-6.19-2.18-19L62.1,118.95l-8.87-3L38.7,111,29.16,91.62.5,89.7v-16L16.74,55.63l2.75-20.8Z" transform="translate(0 -5.77)"/><polygon class="cls-3" points="123.65 113.24 123.65 116.42 119.65 116.42 115.72 113.24 123.65 113.24"/><polygon class="cls-1" points="108.29 22.7 120.05 42.66 105.71 52.27 93.94 30.93 108.29 22.7"/><polygon class="cls-1" points="120.05 42.66 111.23 51.87 99.9 58.1 99.9 58.09 105.71 52.27 120.05 42.66"/><path class="cls-3" d="M119.65,122.19h-9.06a4.36,4.36,0,0,0,0-3.18h5.13Z" transform="translate(0 -5.77)"/><polygon class="cls-1" points="114.38 0.5 108.29 22.7 93.94 30.93 100.17 8.12 114.38 0.5"/><polygon class="cls-2" points="114.38 0.5 100.17 8.12 74.91 8.12 87.29 0.5 114.38 0.5"/><path class="cls-3" d="M110.59,119a4.36,4.36,0,0,1,0,3.18h-4.13V119Z" transform="translate(0 -5.77)"/><path class="cls-3" d="M110.59,119h-4.13v3.18h4.13a4.43,4.43,0,1,1,0-3.18Z" transform="translate(0 -5.77)"/><path class="cls-2" d="M54.1,96.6a30.85,30.85,0,0,1-2.9-1.86l1.53-1.41a34.14,34.14,0,0,0,20.54,6.82c6.11,0,14.27-6.15,19.24-8.94l-4,5.74a34.15,34.15,0,0,1-22.27,8.2h-.6l0-2.73a13.71,13.71,0,0,1-7.18-2.26L56,99.45s-1.33-.8-2.67-1.55Z" transform="translate(0 -5.77)"/><path class="cls-2" d="M65.7,102.41l0,2.73A34.33,34.33,0,0,1,50,40.58a34.33,34.33,0,0,0,2.73,52.75L51.2,94.74a30.85,30.85,0,0,0,2.9,1.86l-.82,1.3c1.34.75,2.67,1.55,2.67,1.55l2.57.7A13.71,13.71,0,0,0,65.7,102.41Z" transform="translate(0 -5.77)"/><polygon class="cls-1" points="49.81 25.97 40.14 32.85 20.4 29.23 35.16 23.57 49.81 25.97"/><polyline class="cls-4" points="87.29 0.5 74.91 8.12 49.81 25.97 40.14 32.85 20.4 29.23 19.49 29.06 16.74 49.86 0.5 67.97 0.5 83.93 29.16 85.85 38.7 105.27 53.23 110.18 62.1 113.18 63.52 125.53"/><polyline class="cls-4" points="114.38 0.5 108.29 22.7 120.05 42.66 105.71 52.27"/><polyline class="cls-4" points="138.91 113.53 138.8 163.14 130.95 175.74 130.9 175.82 104.43 169.97 94.1 150.69 65.7 144.5 63.52 125.53"/><polyline class="cls-4" points="97.4 78.67 139.52 112.77 139.61 112.84"/><polyline class="cls-4" points="130.95 125.53 130.95 175.74 130.95 175.82"/><line class="cls-4" x1="74.91" y1="8.12" x2="100.17" y2="8.12"/><line class="cls-4" x1="87.29" y1="0.5" x2="114.38" y2="0.5"/><line class="cls-4" x1="83.81" y1="5.2" x2="89.44" y2="5.2"/><line class="cls-4" x1="87.81" y1="2.54" x2="92.19" y2="2.54"/><line class="cls-4" x1="95.52" y1="6.08" x2="100.52" y2="6.08"/><line class="cls-4" x1="98.02" y1="2.42" x2="102.19" y2="2.42"/><line class="cls-4" x1="102.19" y1="4.13" x2="106.85" y2="4.13"/><line class="cls-4" x1="135.85" y1="121.06" x2="135.85" y2="125.44"/><line class="cls-4" x1="133.19" y1="125.44" x2="133.19" y2="131.06"/><line class="cls-4" x1="135.85" y1="129.44" x2="135.85" y2="133.81"/><line class="cls-4" x1="133.07" y1="138.44" x2="133.07" y2="143.44"/><line class="cls-4" x1="136.74" y1="140.94" x2="136.74" y2="145.11"/><line class="cls-4" x1="135.02" y1="147.11" x2="135.02" y2="151.77"/><line class="cls-4" x1="136.74" y1="156.61" x2="136.74" y2="159.77"/><line class="cls-4" x1="133.86" y1="154.86" x2="133.86" y2="160.48"/><line class="cls-4" x1="135.74" y1="161.36" x2="135.74" y2="165.73"/><line class="cls-4" x1="133.07" y1="163.73" x2="133.07" y2="169.36"/><path class="cls-5" d="M88.65,96.86l-.11.09" transform="translate(0 -5.77)"/><polyline class="cls-5" points="99.59 58.4 99.9 58.09 105.71 52.27 93.94 30.93 100.17 8.12 114.38 0.5"/><polyline class="cls-5" points="119.65 116.42 130.9 125.53 130.92 125.51 138.91 113.53"/><line class="cls-5" x1="88.69" y1="91.35" x2="115.72" y2="113.24"/><path class="cls-5" d="M92.51,91.21c-5,2.79-13.13,8.94-19.24,8.94A34.33,34.33,0,0,1,50,40.58" transform="translate(0 -5.77)"/><path class="cls-4" d="M58.52,100.15a13.71,13.71,0,0,0,7.18,2.26h0" transform="translate(0 -5.77)"/><path class="cls-4" d="M47.62,95.3a15.76,15.76,0,0,0,2.25,1.6" transform="translate(0 -5.77)"/><path class="cls-4" d="M39.94,89.11a18.44,18.44,0,0,0,2.76,3.38" transform="translate(0 -5.77)"/><path class="cls-4" d="M45.28,89.9A32.27,32.27,0,0,0,48,92.49" transform="translate(0 -5.77)"/><path class="cls-4" d="M38.94,82.9a20.08,20.08,0,0,0,1.76,3.17" transform="translate(0 -5.77)"/><path class="cls-4" d="M50.45,98.74c1.17.58,2.5,1.41,2.5,1.41" transform="translate(0 -5.77)"/><path class="cls-4" d="M51.2,94.74a30.85,30.85,0,0,0,2.9,1.86l.52.3" transform="translate(0 -5.77)"/><path class="cls-4" d="M53.28,97.9c1.34.75,2.67,1.55,2.67,1.55" transform="translate(0 -5.77)"/><path class="cls-4" d="M34.28,73.15a33.17,33.17,0,0,0,1.5,6.42" transform="translate(0 -5.77)"/><path class="cls-4" d="M37.45,75c.33,1.33,1.49,4.58,1.49,4.58" transform="translate(0 -5.77)"/><path class="cls-4" d="M36.78,64.82a31.89,31.89,0,0,0,0,6" transform="translate(0 -5.77)"/><path class="cls-4" d="M37.07,61.15a43.54,43.54,0,0,1,2.37-7.41" transform="translate(0 -5.77)"/><path class="cls-4" d="M35,62.49a22.31,22.31,0,0,0-.75,4.75" transform="translate(0 -5.77)"/><polyline class="cls-5" points="88.54 91.18 92.51 85.44 92.52 85.43 97.25 78.57 97.37 78.4"/><line class="cls-4" x1="93.94" y1="30.93" x2="108.29" y2="22.7"/><path class="cls-5" d="M120.05,48.43l-8.82,9.21L99.9,63.87h0a34.34,34.34,0,1,0-34.23,41.28h.6a34.15,34.15,0,0,0,22.27-8.2" transform="translate(0 -5.77)"/><polyline class="cls-4" points="19.61 29.53 20.4 29.23 35.16 23.57 49.81 25.97 50.43 26.07"/><path class="cls-6" d="M110.59,122.19a4.43,4.43,0,1,1,0-3.18" transform="translate(0 -5.77)"/><polygon class="cls-7" points="115.72 113.24 123.65 113.24 123.65 116.42 119.65 116.42 110.59 116.42 106.46 116.42 106.46 113.24 110.59 113.24 115.72 113.24"/></g></g></svg>