<svg xmlns="http://www.w3.org/2000/svg" viewBox="0 0 87.5 68.44"><defs><style>.cls-1{fill:#fff;}.cls-2{fill:#e30613;}.cls-3{fill:none;stroke:#1d1d1b;stroke-miterlimit:10;}</style></defs><title>A</title><g id="Layer_2" data-name="Layer 2"><g id="Layer_1-2" data-name="Layer 1"><polygon class="cls-1" points="31.64 5.41 31.64 2.54 31.64 0.5 87.24 0.5 74.86 8.12 30.89 8.12 30.89 5.41 31.64 5.41"/><polygon class="cls-1" points="74.86 8.12 40.09 32.85 28.06 30.65 19.44 29.07 16.69 49.86 0.5 67.91 0.5 8.12 30.89 8.12 74.86 8.12"/><polygon class="cls-1" points="31.64 2.54 31.64 5.41 30.89 5.41 30.89 8.12 0.5 8.12 14.3 0.5 31.64 0.5 31.64 2.54"/><polygon class="cls-2" points="28.06 30.65 26.32 43.86 16.69 49.86 19.44 29.07 28.06 30.65"/><polygon class="cls-2" points="26.32 43.86 10.08 61.97 0.5 67.94 0.5 67.91 16.69 49.86 26.32 43.86"/><polyline class="cls-3" points="0.5 67.97 0.5 67.94 0.5 67.91 0.5 8.12 30.89 8.12 74.86 8.12"/><polyline class="cls-3" points="0.5 8.12 14.3 0.5 31.64 0.5 87.24 0.5"/><line class="cls-3" x1="53.47" y1="5.2" x2="58.47" y2="5.2"/><line class="cls-3" x1="48.97" y1="2.54" x2="53.14" y2="2.54"/><line class="cls-3" x1="61.14" y1="4.25" x2="65.8" y2="4.25"/><line class="cls-3" x1="69.64" y1="2.54" x2="72.8" y2="2.54"/><line class="cls-3" x1="70.89" y1="5.41" x2="76.51" y2="5.41"/><line class="cls-3" x1="77.21" y1="2.54" x2="81.58" y2="2.54"/><line class="cls-3" x1="7.47" y1="6.2" x2="15.32" y2="6.2"/><line class="cls-3" x1="15.32" y1="3.42" x2="19.48" y2="3.42"/><line class="cls-3" x1="22.14" y1="5.25" x2="26.8" y2="5.25"/><line class="cls-3" x1="31.64" y1="2.54" x2="34.8" y2="2.54"/><polyline class="cls-3" points="30.89 5.41 31.64 5.41 36.51 5.41"/><line class="cls-3" x1="38.21" y1="3.42" x2="42.58" y2="3.42"/><line class="cls-3" x1="44.65" y1="6.2" x2="47.76" y2="6.2"/><line class="cls-3" x1="25.57" y1="2.42" x2="28.07" y2="2.42"/><polyline class="cls-3" points="0.45 67.97 0.5 67.94 10.08 61.97 26.32 43.86"/><polyline class="cls-3" points="87.24 0.5 74.86 8.12 40.09 32.85 28.06 30.65 19.44 29.07 16.69 49.86 0.5 67.91 0.45 67.97"/><line class="cls-3" x1="26.32" y1="43.86" x2="28.06" y2="30.65"/><line class="cls-3" x1="16.69" y1="49.86" x2="26.32" y2="43.86"/></g></g></svg>