<?xml version="1.0" encoding="utf-8"?>
<!-- Generator: Adobe Illustrator 18.0.0, SVG Export Plug-In . SVG Version: 6.00 Build 0)  -->
<!DOCTYPE svg PUBLIC "-//W3C//DTD SVG 1.1//EN" "http://www.w3.org/Graphics/SVG/1.1/DTD/svg11.dtd">
<svg version="1.1" id="Layer_1" xmlns="http://www.w3.org/2000/svg" xmlns:xlink="http://www.w3.org/1999/xlink" x="0px" y="0px"
	 viewBox="0 0 68.2 49.7" enable-background="new 0 0 68.2 49.7" xml:space="preserve">
<g>
	<g>
		<path fill="#FFFFFF" stroke="#000000" stroke-miterlimit="10" d="M32.7,1.3v15.1c0,0.5,0.4,0.8,0.8,0.8h33.4
			c0.5,0,0.8,0.4,0.8,0.8v15.4c0,0.5-0.4,0.8-0.8,0.8H33.5c-0.5,0-0.8,0.4-0.8,0.8v13.3c0,0.7-0.8,1.1-1.3,0.6L0.8,25.3
			c-0.4-0.3-0.4-1,0-1.3L31.4,0.7C31.9,0.3,32.7,0.6,32.7,1.3z"/>
		<line fill="#FFFFFF" stroke="#000000" stroke-miterlimit="10" x1="42.4" y1="20.9" x2="41.1" y2="20.9"/>
		<line fill="#FFFFFF" stroke="#000000" stroke-miterlimit="10" x1="37.3" y1="26.7" x2="38.3" y2="26.7"/>
		<line fill="#FFFFFF" stroke="#000000" stroke-miterlimit="10" x1="41.8" y1="30.9" x2="43.1" y2="30.3"/>
		<line fill="#FFFFFF" stroke="#000000" stroke-miterlimit="10" x1="50.6" y1="32" x2="51.9" y2="30.9"/>
		<line fill="#FFFFFF" stroke="#000000" stroke-miterlimit="10" x1="48.8" y1="21.6" x2="49.6" y2="22.7"/>
		<line fill="#FFFFFF" stroke="#000000" stroke-miterlimit="10" x1="46.5" y1="24.8" x2="47.4" y2="25.4"/>
		<line fill="#FFFFFF" stroke="#000000" stroke-miterlimit="10" x1="58.6" y1="25.4" x2="59.6" y2="25.4"/>
		<line fill="#FFFFFF" stroke="#000000" stroke-miterlimit="10" x1="52.5" y1="25.4" x2="54.1" y2="25.4"/>
		<line fill="#FFFFFF" stroke="#000000" stroke-miterlimit="10" x1="56.1" y1="20.3" x2="57.4" y2="20.9"/>
		<path fill="#FFFFFF" stroke="#000000" stroke-miterlimit="10" d="M58.6,30.9c-0.2-0.6,1-0.6,1-0.6"/>
		<line fill="#FFFFFF" stroke="#000000" stroke-miterlimit="10" x1="62.9" y1="22.1" x2="64.8" y2="22.7"/>
		<line fill="#FFFFFF" stroke="#000000" stroke-miterlimit="10" x1="63.8" y1="30.3" x2="65.4" y2="29.7"/>
	</g>
	<line fill="#FFFFFF" stroke="#000000" stroke-miterlimit="10" x1="15.9" y1="20.3" x2="16.8" y2="19.4"/>
	<line fill="#FFFFFF" stroke="#000000" stroke-miterlimit="10" x1="9.1" y1="26.7" x2="10.1" y2="27.4"/>
	<line fill="#FFFFFF" stroke="#000000" stroke-miterlimit="10" x1="20.3" y1="26.7" x2="21.2" y2="26.7"/>
	<line fill="#FFFFFF" stroke="#000000" stroke-miterlimit="10" x1="20.8" y1="32" x2="22.3" y2="33.1"/>
	<line fill="#FFFFFF" stroke="#000000" stroke-miterlimit="10" x1="26.4" y1="11.4" x2="28.1" y2="10.2"/>
	<line fill="#FFFFFF" stroke="#000000" stroke-miterlimit="10" x1="26.5" y1="22.5" x2="28" y2="22.8"/>
	<line fill="#FFFFFF" stroke="#000000" stroke-miterlimit="10" x1="28.8" y1="30.3" x2="29.8" y2="30.9"/>
	<line fill="#FFFFFF" stroke="#000000" stroke-miterlimit="10" x1="27.3" y1="39.4" x2="28.8" y2="40.4"/>
	<line fill="#FFFFFF" stroke="#000000" stroke-miterlimit="10" x1="20.8" y1="17.4" x2="22.3" y2="17.4"/>
	<line fill="#FFFFFF" stroke="#000000" stroke-miterlimit="10" x1="13.6" y1="28.5" x2="14.9" y2="29.7"/>
</g>
</svg>
