<svg xmlns="http://www.w3.org/2000/svg" viewBox="0 0 51.41 126.26"><defs><style>.cls-1{fill:#fff;}.cls-2,.cls-3{fill:none;stroke:#1d1d1b;}.cls-2{stroke-miterlimit:10;}.cls-3{stroke-linecap:round;stroke-linejoin:round;}</style></defs><title>B</title><g id="Layer_2" data-name="Layer 2"><g id="Layer_1-2" data-name="Layer 1"><polygon class="cls-1" points="45.92 72.22 48.8 72.22 50.91 72.22 50.91 113.54 50.95 113.57 42.96 125.53 42.96 70.47 45.92 70.47 45.92 72.22"/><polygon class="cls-1" points="45.8 29.47 48.68 29.47 48.68 28.22 50.91 28.22 50.91 72.22 48.8 72.22 45.92 72.22 45.92 70.47 42.96 70.47 42.96 29.47 45.8 29.47"/><polygon class="cls-1" points="50.91 1.29 50.91 28.22 48.68 28.22 48.68 29.47 45.8 29.47 42.96 29.47 42.96 8.91 50.86 1.29 50.91 1.29"/><polygon class="cls-1" points="50.91 0.5 50.91 1.29 50.86 1.29 42.96 8.91 12.23 8.12 26.44 0.5 50.34 0.5 50.91 0.5"/><path class="cls-1" d="M43,70.47v55.06L.75,91.35.5,91.27l.1-.09.11-.09a34.26,34.26,0,0,0,12-26A34.56,34.56,0,0,0,12,58.1l5.8-5.83L6,30.94,12.23,8.12,43,8.91V70.47Z"/><line class="cls-2" x1="26.86" y1="2.48" x2="30.03" y2="2.48"/><line class="cls-2" x1="25.11" y1="5.35" x2="30.73" y2="5.35"/><line class="cls-2" x1="32.61" y1="3.48" x2="36.98" y2="3.48"/><line class="cls-2" x1="35.98" y1="6.15" x2="41.61" y2="6.15"/><line class="cls-2" x1="41.98" y1="2.48" x2="46.36" y2="2.48"/><polyline class="cls-2" points="50.86 1.29 42.96 8.91 42.96 29.47 42.96 70.47 42.96 125.53"/><line class="cls-2" x1="26.44" y1="0.5" x2="50.34" y2="0.5"/><polyline class="cls-2" points="50.91 113.54 50.91 72.22 50.91 28.22 50.91 1.29 50.91 0.5 50.34 0.5"/><line class="cls-2" x1="45.01" y1="11.05" x2="45.01" y2="16.05"/><line class="cls-2" x1="48.68" y1="7.55" x2="48.68" y2="11.72"/><line class="cls-2" x1="46.96" y1="19.72" x2="46.96" y2="24.39"/><polyline class="cls-2" points="48.68 28.22 48.68 29.47 48.68 31.39"/><line class="cls-2" x1="45.8" y1="29.47" x2="45.8" y2="35.09"/><line class="cls-2" x1="47.68" y1="37.97" x2="47.68" y2="42.34"/><line class="cls-2" x1="45.01" y1="42.34" x2="45.01" y2="47.97"/><line class="cls-2" x1="48.68" y1="46.34" x2="48.68" y2="50.72"/><line class="cls-2" x1="45.13" y1="54.05" x2="45.13" y2="59.05"/><line class="cls-2" x1="48.8" y1="56.55" x2="48.8" y2="60.72"/><line class="cls-2" x1="47.08" y1="62.72" x2="47.08" y2="67.39"/><line class="cls-2" x1="48.8" y1="72.22" x2="48.8" y2="75.39"/><polyline class="cls-2" points="45.92 70.47 45.92 72.22 45.92 76.09"/><line class="cls-2" x1="47.8" y1="78.97" x2="47.8" y2="83.34"/><line class="cls-2" x1="45.13" y1="83.34" x2="45.13" y2="88.97"/><line class="cls-2" x1="48.8" y1="87.34" x2="48.8" y2="91.72"/><line class="cls-2" x1="45.25" y1="94.15" x2="45.25" y2="99.15"/><line class="cls-2" x1="48.91" y1="96.65" x2="48.91" y2="100.81"/><line class="cls-2" x1="47.2" y1="102.81" x2="47.2" y2="107.48"/><line class="cls-2" x1="48.91" y1="111.31" x2="48.91" y2="114.48"/><line class="cls-2" x1="46.04" y1="110.56" x2="46.04" y2="116.19"/><polyline class="cls-2" points="11.96 58.1 17.76 52.27 6 30.94 12.23 8.12 26.44 0.5"/><polyline class="cls-2" points="50.97 113.54 50.95 113.57 42.96 125.53 0.75 91.35"/><path class="cls-3" d="M.71,91.09l-.11.09"/><path class="cls-3" d="M12,58.1a34.56,34.56,0,0,1,.7,6.95,34.26,34.26,0,0,1-11.95,26"/><path class="cls-3" d="M.6,91.18l-.1.09"/><line class="cls-2" x1="12.23" y1="8.12" x2="42.96" y2="8.91"/></g></g></svg>