<svg xmlns="http://www.w3.org/2000/svg" viewBox="0 0 139.31 226.6"><defs><style>.cls-1{fill:#fff;}.cls-2{fill:#1d1d1b;}.cls-3,.cls-4,.cls-5,.cls-6{fill:none;}.cls-3,.cls-4,.cls-6{stroke:#1d1d1b;}.cls-3,.cls-4,.cls-5{stroke-miterlimit:10;}.cls-4{stroke-width:0.25px;}.cls-5{stroke:#fff;}.cls-5,.cls-6{stroke-width:0.5px;}.cls-6{stroke-linecap:round;stroke-linejoin:round;}</style></defs><title>Asset 1</title><g id="Layer_2" data-name="Layer 2"><g id="Layer_1-2" data-name="Layer 1"><polygon class="cls-1" points="42.43 183.39 64.11 208.17 47 225.46 0.5 225.46 0.5 83.93 29.11 85.86 38.65 105.27 53.19 110.19 62.05 113.19 63.47 125.53 46.56 147.6 59.98 166.18 42.43 183.39"/><polygon class="cls-1" points="130.9 176.4 130.9 190.73 130.9 225.46 47 225.46 64.11 208.17 42.43 183.39 59.98 166.18 46.56 147.6 63.47 125.53 65.65 144.5 94.05 150.7 104.38 169.97 130.85 175.82 130.9 175.74 130.9 175.82 130.9 176.4"/><polygon class="cls-1" points="138.81 211.72 130.9 225.46 130.9 190.73 133.02 190.73 133.02 196.36 133.69 198.36 136.69 198.36 136.69 194.73 138.81 194.73 138.81 211.72"/><polygon class="cls-1" points="130.9 190.73 130.9 176.4 130.9 175.82 130.9 175.74 138.75 163.14 138.81 163.14 138.81 194.73 136.69 194.73 136.69 198.36 133.69 198.36 133.02 196.36 133.02 190.73 130.9 190.73"/><polygon class="cls-1" points="133.14 125.44 133.14 131.06 130.9 131.06 130.9 125.53 130.9 125.46 131.6 124.41 133.14 125.44"/><polygon class="cls-1" points="131.6 124.41 136.11 117.65 137.79 115.14 138.81 113.61 138.81 163.14 138.75 163.14 130.9 175.74 130.9 131.06 133.14 131.06 133.14 125.44 131.6 124.41"/><polygon class="cls-1" points="137.79 115.14 136.11 117.65 133.93 116.19 133.93 111.31 136.81 111.31 136.81 114.48 137.79 115.14"/><polygon class="cls-1" points="130.9 8.86 138.75 1.29 138.81 1.29 138.81 28.22 136.57 28.22 136.57 29.47 133.7 29.47 130.9 29.47 130.9 8.86"/><polygon class="cls-1" points="133.7 29.47 136.57 29.47 136.57 28.22 138.81 28.22 138.81 72.22 136.69 72.22 133.81 72.22 133.81 70.47 130.9 70.47 130.9 29.47 133.7 29.47"/><polygon class="cls-1" points="136.81 111.31 133.93 111.31 133.93 116.19 136.11 117.65 131.6 124.41 130.9 125.46 130.9 70.47 133.81 70.47 133.81 72.22 136.69 72.22 138.81 72.22 138.81 113.54 138.81 113.61 137.79 115.14 136.81 114.48 136.81 111.31"/><path class="cls-1" d="M31.89,80.09a34.31,34.31,0,0,1,18-30.23,34.34,34.34,0,0,0,23.28,59.57c6.11,0,10.42-.51,15.39-3.3l-.11.09A34.33,34.33,0,0,1,31.89,80.09Z" transform="translate(0 -15.04)"/><path class="cls-1" d="M88.64,106.39l27.69,22.42H110.6a4.43,4.43,0,1,0,0,3.19h9.67l10.58,8.57.05-.07v50.28l-.05.08L104.38,185,94.05,165.74l-28.4-6.2-2.18-19-1.42-12.34-8.86-3-14.54-4.92L29.11,100.9.5,99V83l16.19-18,2.75-20.79,20.65,3.78L74.86,23.16h25.26L93.89,46l11.77,21.33-5.81,5.83A34.36,34.36,0,0,0,50,49.85h0A34.34,34.34,0,1,0,88.5,106.22Z" transform="translate(0 -15.04)"/><path class="cls-1" d="M88.61,106.13a34.3,34.3,0,0,0,12-26,33.93,33.93,0,0,0-.71-7l5.81-5.83L93.89,46l6.23-22.82H130.9V140.5l-.05.07L120.27,132h3.39v-3.19h-7.33L88.64,106.39l-.14-.17Z" transform="translate(0 -15.04)"/><polygon class="cls-1" points="114.33 0.5 138.23 0.5 138.81 0.5 138.81 1.29 138.75 1.29 130.9 8.86 130.9 8.12 100.12 8.12 114.33 0.5"/><polygon class="cls-1" points="87.76 2.54 89.39 2.54 89.39 5.2 83.76 5.2 82.62 3.34 86.71 0.83 87.76 2.54"/><polygon class="cls-1" points="89.39 2.54 87.76 2.54 86.71 0.83 87.24 0.5 114.33 0.5 100.12 8.12 74.86 8.12 82.62 3.34 83.76 5.2 89.39 5.2 89.39 2.54"/><polygon class="cls-1" points="53.47 5.2 53.14 2.54 48.97 2.54 48.97 0.5 87.24 0.5 86.71 0.83 82.62 3.34 74.86 8.12 53.47 8.12 53.47 5.2"/><polygon class="cls-1" points="31.64 5.41 31.64 2.54 31.64 0.5 48.97 0.5 48.97 2.54 53.14 2.54 53.47 5.2 53.47 8.12 30.89 8.12 30.89 5.41 31.64 5.41"/><polygon class="cls-1" points="14.31 0.5 31.64 0.5 31.64 2.54 31.64 5.41 30.89 5.41 30.89 8.12 0.5 8.12 14.31 0.5"/><polygon class="cls-1" points="74.86 8.12 40.09 32.85 19.44 29.07 16.69 49.86 0.5 67.91 0.5 8.12 30.89 8.12 53.47 8.12 74.86 8.12"/><path class="cls-2" d="M120.27,132H110.6a4.5,4.5,0,0,0,.3-1.6,4.41,4.41,0,0,0-.3-1.59h5.73Z" transform="translate(0 -15.04)"/><polygon class="cls-2" points="123.66 113.77 123.66 116.96 120.27 116.96 116.33 113.77 123.66 113.77"/><path class="cls-2" d="M106.47,132h4.13a4.43,4.43,0,1,1,0-3.19h-4.13Z" transform="translate(0 -15.04)"/><path class="cls-2" d="M110.6,128.81a4.41,4.41,0,0,1,.3,1.59,4.5,4.5,0,0,1-.3,1.6h-4.13v-3.19Z" transform="translate(0 -15.04)"/><polyline class="cls-3" points="0.45 67.97 0.5 67.91 16.69 49.86 19.44 29.07 40.09 32.85 74.86 8.12 82.62 3.34 86.71 0.83 87.24 0.5"/><polyline class="cls-3" points="63.47 125.53 65.65 144.5 94.05 150.7 104.38 169.97 130.85 175.82 130.9 175.74 138.75 163.14"/><polyline class="cls-3" points="0.45 83.93 0.5 83.93 29.11 85.86 38.65 105.27 53.19 110.19 62.05 113.19 63.47 125.53"/><polyline class="cls-3" points="46.22 226.25 47 225.46 64.11 208.17 42.43 183.39 59.98 166.18 46.56 147.6 63.47 125.53"/><polyline class="cls-3" points="99.85 58.1 105.66 52.27 93.89 30.94 100.12 8.12 114.33 0.5"/><line class="cls-3" x1="116.33" y1="113.77" x2="88.64" y2="91.35"/><polyline class="cls-3" points="138.86 113.54 138.81 113.61 137.79 115.14 136.11 117.65 131.6 124.41 130.9 125.46 130.85 125.53 120.27 116.96"/><polyline class="cls-3" points="138.75 1.29 130.9 8.86 130.85 8.91"/><polyline class="cls-3" points="100.12 8.12 130.9 8.12 130.9 8.86 130.9 29.47 130.9 70.47 130.9 125.46 130.9 125.53"/><polyline class="cls-3" points="0.5 67.97 0.5 67.91 0.5 8.12 30.89 8.12 53.47 8.12 74.86 8.12"/><line class="cls-3" x1="0.5" y1="83.93" x2="0.5" y2="67.97"/><polyline class="cls-3" points="47 225.46 0.5 225.46 0.5 83.93"/><polyline class="cls-3" points="130.9 176.4 130.9 190.73 130.9 225.46 47 225.46"/><line class="cls-3" x1="130.9" y1="175.82" x2="130.9" y2="176.4"/><path class="cls-4" d="M110.6,132a4.43,4.43,0,1,1,0-3.19" transform="translate(0 -15.04)"/><polygon class="cls-5" points="116.33 113.77 123.66 113.77 123.66 116.96 120.27 116.96 110.6 116.96 106.47 116.96 106.47 113.77 110.6 113.77 116.33 113.77"/><line class="cls-3" x1="114.33" y1="0.5" x2="138.23" y2="0.5"/><polyline class="cls-3" points="0.5 8.12 14.31 0.5 31.64 0.5 48.97 0.5 87.24 0.5"/><polyline class="cls-3" points="138.81 113.54 138.81 72.22 138.81 28.22 138.81 1.29 138.81 0.5 138.23 0.5"/><polyline class="cls-3" points="138.81 163.14 138.81 113.61 138.81 113.54"/><polyline class="cls-3" points="130.9 225.46 138.81 211.72 138.81 194.73 138.81 163.14"/><line class="cls-3" x1="132.9" y1="11.05" x2="132.9" y2="16.05"/><line class="cls-3" x1="136.57" y1="7.55" x2="136.57" y2="11.72"/><line class="cls-3" x1="134.85" y1="19.72" x2="134.85" y2="24.39"/><polyline class="cls-3" points="136.57 28.22 136.57 29.47 136.57 31.39"/><line class="cls-3" x1="133.7" y1="29.47" x2="133.7" y2="35.1"/><line class="cls-3" x1="135.57" y1="37.97" x2="135.57" y2="42.35"/><line class="cls-3" x1="132.9" y1="42.35" x2="132.9" y2="47.97"/><line class="cls-3" x1="136.57" y1="46.35" x2="136.57" y2="50.72"/><line class="cls-3" x1="133.02" y1="54.05" x2="133.02" y2="59.05"/><line class="cls-3" x1="136.69" y1="56.55" x2="136.69" y2="60.72"/><line class="cls-3" x1="134.97" y1="62.72" x2="134.97" y2="67.39"/><line class="cls-3" x1="136.69" y1="72.22" x2="136.69" y2="75.39"/><polyline class="cls-3" points="133.81 70.47 133.81 72.22 133.81 76.1"/><line class="cls-3" x1="135.69" y1="78.97" x2="135.69" y2="83.35"/><line class="cls-3" x1="133.02" y1="83.35" x2="133.02" y2="88.97"/><line class="cls-3" x1="136.69" y1="87.35" x2="136.69" y2="91.72"/><line class="cls-3" x1="53.47" y1="5.2" x2="58.47" y2="5.2"/><line class="cls-3" x1="48.97" y1="2.54" x2="53.14" y2="2.54"/><line class="cls-3" x1="61.14" y1="4.25" x2="65.81" y2="4.25"/><line class="cls-3" x1="69.64" y1="2.54" x2="72.81" y2="2.54"/><line class="cls-3" x1="70.89" y1="5.41" x2="76.51" y2="5.41"/><line class="cls-3" x1="77.21" y1="2.54" x2="81.58" y2="2.54"/><line class="cls-3" x1="7.47" y1="6.2" x2="15.32" y2="6.2"/><line class="cls-3" x1="15.32" y1="3.42" x2="19.49" y2="3.42"/><line class="cls-3" x1="22.14" y1="5.25" x2="26.81" y2="5.25"/><line class="cls-3" x1="31.64" y1="2.54" x2="34.81" y2="2.54"/><polyline class="cls-3" points="30.89 5.41 31.64 5.41 36.51 5.41"/><line class="cls-3" x1="38.21" y1="3.42" x2="42.59" y2="3.42"/><line class="cls-3" x1="113.64" y1="2.42" x2="116.81" y2="2.42"/><line class="cls-3" x1="111.89" y1="5.29" x2="117.51" y2="5.29"/><line class="cls-3" x1="119.39" y1="3.42" x2="123.76" y2="3.42"/><line class="cls-3" x1="122.76" y1="6.09" x2="128.39" y2="6.09"/><line class="cls-3" x1="128.76" y1="2.42" x2="133.14" y2="2.42"/><line class="cls-3" x1="133.14" y1="94.15" x2="133.14" y2="99.15"/><line class="cls-3" x1="136.81" y1="96.65" x2="136.81" y2="100.81"/><line class="cls-3" x1="135.09" y1="102.81" x2="135.09" y2="107.48"/><line class="cls-3" x1="136.81" y1="111.31" x2="136.81" y2="114.48"/><polyline class="cls-3" points="133.93 110.56 133.93 111.31 133.93 116.19"/><line class="cls-3" x1="136.69" y1="171.73" x2="136.69" y2="176.11"/><line class="cls-3" x1="136.69" y1="179.61" x2="136.69" y2="182.78"/><line class="cls-3" x1="133.81" y1="177.86" x2="133.81" y2="183.48"/><line class="cls-3" x1="135.69" y1="186.36" x2="135.69" y2="190.73"/><line class="cls-3" x1="133.02" y1="190.73" x2="133.02" y2="196.36"/><polyline class="cls-3" points="136.69 194.73 136.69 198.36 136.69 199.11"/><line class="cls-3" x1="133.69" y1="198.36" x2="133.69" y2="202.73"/><line class="cls-3" x1="133.02" y1="210.73" x2="133.02" y2="216.36"/><line class="cls-3" x1="136.69" y1="206.73" x2="136.69" y2="211.11"/><line class="cls-3" x1="44.65" y1="6.2" x2="47.76" y2="6.2"/><line class="cls-3" x1="25.57" y1="2.42" x2="28.07" y2="2.42"/><path class="cls-3" d="M50,49.85a34.34,34.34,0,0,1,38.66,56.28" transform="translate(0 -15.04)"/><path class="cls-3" d="M88.5,106.22A34.34,34.34,0,1,1,49.94,49.86" transform="translate(0 -15.04)"/><path class="cls-3" d="M88.61,106.13c-5,2.79-9.28,3.3-15.39,3.3A34.34,34.34,0,0,1,49.94,49.86h0" transform="translate(0 -15.04)"/><path class="cls-3" d="M58.47,109.43a13.78,13.78,0,0,0,7.23,2.26" transform="translate(0 -15.04)"/><path class="cls-3" d="M47.57,104.57a16.2,16.2,0,0,0,2.25,1.61" transform="translate(0 -15.04)"/><path class="cls-3" d="M39.89,98.39a18.6,18.6,0,0,0,2.76,3.37" transform="translate(0 -15.04)"/><path class="cls-3" d="M45.24,99.18a32.09,32.09,0,0,0,2.66,2.58" transform="translate(0 -15.04)"/><path class="cls-3" d="M38.89,92.18a19.7,19.7,0,0,0,1.76,3.16" transform="translate(0 -15.04)"/><path class="cls-3" d="M50.4,108c1.17.58,2.5,1.42,2.5,1.42" transform="translate(0 -15.04)"/><path class="cls-3" d="M51.15,104a39.15,39.15,0,0,0,3.42,2.17" transform="translate(0 -15.04)"/><path class="cls-3" d="M34.24,82.43a32.23,32.23,0,0,0,1.5,6.41" transform="translate(0 -15.04)"/><path class="cls-3" d="M37.4,84.26c.34,1.33,1.49,4.58,1.49,4.58" transform="translate(0 -15.04)"/><path class="cls-3" d="M36.74,74.09a30.93,30.93,0,0,0,0,6" transform="translate(0 -15.04)"/><path class="cls-3" d="M37,70.43A43.08,43.08,0,0,1,39.39,63" transform="translate(0 -15.04)"/><path class="cls-3" d="M35,71.76a21.6,21.6,0,0,0-.75,4.75" transform="translate(0 -15.04)"/><polyline class="cls-3" points="130.9 125.53 130.9 131.06 130.9 175.74 130.9 175.82"/><line class="cls-3" x1="74.86" y1="8.12" x2="100.12" y2="8.12"/><line class="cls-3" x1="87.24" y1="0.5" x2="114.33" y2="0.5"/><line class="cls-3" x1="83.76" y1="5.2" x2="89.39" y2="5.2"/><polyline class="cls-3" points="87.76 2.54 89.39 2.54 92.14 2.54"/><line class="cls-3" x1="95.47" y1="6.09" x2="100.47" y2="6.09"/><line class="cls-3" x1="97.97" y1="2.42" x2="102.14" y2="2.42"/><line class="cls-3" x1="102.14" y1="4.14" x2="106.81" y2="4.14"/><line class="cls-3" x1="135.81" y1="121.06" x2="135.81" y2="125.44"/><line class="cls-3" x1="133.14" y1="125.44" x2="133.14" y2="131.06"/><line class="cls-3" x1="135.81" y1="129.44" x2="135.81" y2="133.81"/><line class="cls-3" x1="133.02" y1="138.44" x2="133.02" y2="143.44"/><line class="cls-3" x1="136.69" y1="140.94" x2="136.69" y2="145.11"/><line class="cls-3" x1="134.97" y1="147.11" x2="134.97" y2="151.78"/><line class="cls-3" x1="136.69" y1="156.61" x2="136.69" y2="159.78"/><line class="cls-3" x1="133.81" y1="154.86" x2="133.81" y2="160.48"/><line class="cls-3" x1="135.69" y1="161.36" x2="135.69" y2="165.73"/><line class="cls-3" x1="133.02" y1="163.73" x2="133.02" y2="169.36"/><path class="cls-6" d="M88.61,106.13l-.11.09" transform="translate(0 -15.04)"/><path class="cls-3" d="M53.24,107.18c1.33.75,2.66,1.54,2.66,1.54" transform="translate(0 -15.04)"/></g></g></svg>