<svg xmlns="http://www.w3.org/2000/svg" viewBox="0 0 97.56 115.23"><defs><style>.cls-1{fill:#fff;}.cls-2{fill:#e30613;}.cls-3{fill:none;stroke:#1d1d1b;stroke-miterlimit:10;}</style></defs><title>E</title><g id="Layer_2" data-name="Layer 2"><g id="Layer_1-2" data-name="Layer 1"><polygon class="cls-1" points="97.06 51.77 97.06 100.35 89.16 114.09 89.16 65.02 89.1 64.45 97.01 51.77 97.06 51.77"/><polygon class="cls-2" points="97.01 51.77 89.1 64.45 62.63 58.6 70.54 45.92 97.01 51.77"/><polygon class="cls-1" points="89.16 65.02 89.16 114.09 5.25 114.09 22.37 96.8 0.69 72.02 18.24 54.81 4.82 36.23 21.72 14.16 23.9 33.13 52.31 39.32 62.63 58.6 89.1 64.45 89.16 65.02"/><polygon class="cls-2" points="60.21 26.65 70.54 45.92 62.63 58.6 52.31 39.32 60.21 26.65"/><polygon class="cls-2" points="60.21 26.65 52.31 39.32 23.9 33.13 31.81 20.46 60.21 26.65"/><polygon class="cls-2" points="29.62 1.48 31.81 20.46 23.9 33.13 21.72 14.16 29.62 1.48"/><line class="cls-3" x1="89.1" y1="64.45" x2="97.01" y2="51.77"/><polyline class="cls-3" points="21.72 14.16 23.9 33.13 52.31 39.32 62.63 58.6 89.1 64.45"/><polyline class="cls-3" points="4.47 114.88 5.25 114.09 22.37 96.8 0.69 72.02 18.24 54.81 4.82 36.23 21.72 14.16 29.62 1.48 31.81 20.46 60.21 26.65 70.54 45.92 97.01 51.77"/><polyline class="cls-3" points="5.25 114.09 89.16 114.09 89.16 65.02 89.1 64.45"/><polyline class="cls-3" points="89.16 114.09 97.06 100.35 97.06 51.77"/><line class="cls-3" x1="94.94" y1="60.36" x2="94.94" y2="64.74"/><line class="cls-3" x1="94.94" y1="68.24" x2="94.94" y2="71.4"/><line class="cls-3" x1="92.07" y1="66.49" x2="92.07" y2="72.11"/><line class="cls-3" x1="93.94" y1="74.99" x2="93.94" y2="79.36"/><line class="cls-3" x1="91.28" y1="79.36" x2="91.28" y2="84.99"/><line class="cls-3" x1="94.94" y1="83.36" x2="94.94" y2="87.74"/><line class="cls-3" x1="91.94" y1="86.99" x2="91.94" y2="91.36"/><line class="cls-3" x1="91.28" y1="99.36" x2="91.28" y2="104.99"/><line class="cls-3" x1="94.94" y1="95.36" x2="94.94" y2="99.74"/><line class="cls-3" x1="62.63" y1="58.6" x2="70.54" y2="45.92"/><line class="cls-3" x1="52.31" y1="39.32" x2="60.21" y2="26.65"/><line class="cls-3" x1="23.9" y1="33.13" x2="31.81" y2="20.46"/></g></g></svg>