<svg xmlns="http://www.w3.org/2000/svg" viewBox="0 0 951.96 804.14"><defs><style>.cls-1{fill:#1d1d1b;}.cls-2,.cls-5{fill:#fff;}.cls-3,.cls-4{fill:none;}.cls-3,.cls-5{stroke:#fff;}.cls-3,.cls-4,.cls-5{stroke-miterlimit:10;}.cls-4{stroke:#1d1d1b;}.cls-5{opacity:0.85;}</style></defs><title>Asset 2</title><g id="Layer_2" data-name="Layer 2"><g id="Layer_1-2" data-name="Layer 1"><path class="cls-1" d="M397.28,175.2c8-5.66,23-9.5,40.24-9.54s32.23,3.72,40.28,9.35h0c4,2.76,6.24,6,6.25,9.43l0,13.3c0-10.44-20.87-18.86-46.55-18.8s-46.49,8.58-46.46,19l0-13.3C391,181.23,393.32,178,397.28,175.2Z"/><path class="cls-1" d="M477.8,175c-8.05-5.63-23.08-9.39-40.28-9.35s-32.2,3.88-40.24,9.54q12.93-23,25.88-31.14a29.59,29.59,0,0,1,8.28-3.71,22.89,22.89,0,0,1,10.5-.38,29,29,0,0,1,9.82,4Q464.76,152.1,477.8,175Z"/><path class="cls-1" d="M437.55,179c25.68-.06,46.52,8.36,46.55,18.8s-20.78,18-46.46,18-46.53-7.35-46.55-17.79S411.86,179,437.55,179Zm35.17,18.82c0-7.46-15.75-13.46-35.15-13.41s-35.12,6.13-35.1,13.59,15.76,13.46,35.16,13.41S472.73,205.23,472.72,197.78Z"/><path class="cls-2" d="M437.56,184.37c19.4,0,35.13,6,35.15,13.41S457,211.32,437.63,211.37s-35.14-6-35.16-13.41S418.16,184.41,437.56,184.37Z"/><path class="cls-1" d="M451.72,124.13l0,19.85a29,29,0,0,0-9.82-4l0-20.29,7.47,3.39.46.21,0,.21.11-.15Z"/><path class="cls-2" d="M452,113a6,6,0,0,1-1,2.72,8.28,8.28,0,0,0-1.67-1.86v-6A6.78,6.78,0,0,1,452,113Z"/><path class="cls-2" d="M452,119c0,1.26-1.18,3.13-2.07,4.31l-.15-.06-.47-2.29a.91.91,0,0,0,0-1v-5l.51,2.5a14.4,14.4,0,0,0,1.17-1.73A6,6,0,0,1,452,119Z"/><path class="cls-2" d="M451,115.75a14.4,14.4,0,0,1-1.17,1.73l-.51-2.5a.91.91,0,0,0,0-1v-.08A8.28,8.28,0,0,1,451,115.75Z"/><path class="cls-2" d="M450,123.34l-.11.15,0-.21Z"/><path class="cls-2" d="M449.34,114a.91.91,0,0,1,0,1Z"/><path class="cls-1" d="M449.36,121v2.08l-7.47-3.39h-1.17l-8.66,0h-.67l-5.79,3.14.4-.64c-.56-.67-.21-2.41-.21-3.11,0-2.74,4.76-5.8,11.61-5.82S449,116.3,449,119a2.67,2.67,0,0,0,.31.94Z"/><path class="cls-2" d="M449.36,119.66V120A2.67,2.67,0,0,1,449,119c0-2.74-4.78-5.78-11.64-5.76s-11.61,3.08-11.61,5.82c0,.7-.35,2.44.21,3.11l-.4.64-.11.06V117l.51-.83c-.43-.51-.32-1.65-.25-2.47,2.64-2.11,6.84-3.45,11.65-3.46s9.26,1.39,11.9,3.58a.61.61,0,0,1,.05.12v5.68Z"/><path class="cls-2" d="M449.34,113.9V114a.61.61,0,0,0-.05-.12Z"/><path class="cls-2" d="M449.33,108.41v5.49l-.05,0A2.18,2.18,0,0,1,449,113c0-2.74-4.78-5.78-11.64-5.76s-11.61,3.08-11.61,5.82c0,.16,0,.39,0,.64l-.27.22v-5.49c0-.18,0-.35,0-.52,2.62-2.23,6.93-3.66,11.9-3.67s9.29,1.4,11.93,3.61C449.32,108.06,449.33,108.23,449.33,108.41Z"/><path class="cls-2" d="M449.33,107.9v.51c0-.18,0-.35,0-.52Z"/><path class="cls-1" d="M449.31,100.91l0,7h0c-.75-10.31-23.14-10.25-23.83.06h0v-7a4.31,4.31,0,0,1,.37-1.77C428.77,92.3,449.29,93.15,449.31,100.91Z"/><path class="cls-1" d="M449,113a2.18,2.18,0,0,0,.26.82c-2.64-2.19-6.94-3.59-11.9-3.58s-9,1.35-11.65,3.46c0-.25,0-.48,0-.64,0-2.74,4.76-5.8,11.61-5.82S449,110.3,449,113Z"/><path class="cls-1" d="M449.31,107.89c-2.64-2.21-7-3.62-11.93-3.61s-9.28,1.44-11.9,3.67C426.17,97.63,448.56,97.58,449.31,107.89Z"/><path class="cls-1" d="M441.9,119.68l0,20.29a22.89,22.89,0,0,0-10.5.38l-.05-20.64h.67l8.66,0Z"/><path class="cls-1" d="M431.4,119.7l.05,20.64a29.59,29.59,0,0,0-8.28,3.71l0-7.42,0-11.41v-1l1.44-.78.39.51.66-1.08Z"/><path class="cls-2" d="M426,116.2l-.51.83V114l.27-.22C425.66,114.56,425.56,115.7,426,116.2Z"/><path class="cls-2" d="M391,144.8S388,146,383.2,143.49a16.54,16.54,0,0,1-3.18-2.16c-3.46-2.9-6.44-7.25-9-11.56-3.34-5.56-2.35-6.58-3.12-9.91s-1.75-9.83-1.26-13L357.22,3.63,394.85.54,399,80a12.93,12.93,0,0,0,.77,2.85c1.94,4.85,6.43,7.32,8.76,8.38a80.09,80.09,0,0,0,10.76,4.22c3,.74,6.46,3.71,6.46,3.71h0a4.31,4.31,0,0,0-.37,1.77v2.42l-5.11,1.24-4,1-4.21,4.73s-1,8.74,1.28,12.16c0,0,1.9,7.72,4,13.24l2,1.81-11.26,2.92-5,1.3h0l-4.43,1.15-7.46,1.93h0Z"/><path class="cls-2" d="M425.6,122.85l-.66,1.08-.39-.51.94-.5h0Z"/><path class="cls-2" d="M425.48,107.95c0,.17,0,.34,0,.52V108Z"/><path class="cls-2" d="M425.48,117v5.87h0l-.94.5a9.16,9.16,0,0,1-1.76-4.32,5.94,5.94,0,0,1,.89-3.1,11.49,11.49,0,0,0,1.24,1.93Z"/><path class="cls-2" d="M425.47,114V117l-.55.89a11.49,11.49,0,0,1-1.24-1.93A8.5,8.5,0,0,1,425.47,114Z"/><path class="cls-2" d="M425.46,108.47V114a8.5,8.5,0,0,0-1.79,2,7,7,0,0,1-.91-2.9,6.78,6.78,0,0,1,2.68-5.15Z"/><path class="cls-1" d="M425.45,103.39V108a6.78,6.78,0,0,0-2.68,5.15,7,7,0,0,0,.91,2.9,5.94,5.94,0,0,0-.89,3.1,9.16,9.16,0,0,0,1.76,4.32l-1.44.78v1l0,11.41h-.31l-3.52.91-2-1.81c-2.05-5.53-4-13.24-4-13.24-2.26-3.41-1.28-12.16-1.28-12.16l4.21-4.73,4-1Z"/><path class="cls-2" d="M419.32,137.54l.71.66a17.35,17.35,0,0,0-1.17,1.37,8.63,8.63,0,0,1-9,1.68c-.71-.28-1.3-.55-1.81-.8Z"/><path class="cls-2" d="M403,141.76l5-1.3c.51.25,1.1.52,1.81.8l-3.42,1.41s-5.25,1.94-7.08.79a2.71,2.71,0,0,1-.8-.54l4.43-1.15Z"/><path class="cls-2" d="M399.37,143.45l-3.84,1.61a11.86,11.86,0,0,1-4.42-.22l7.46-1.93A2.71,2.71,0,0,0,399.37,143.45Z"/><path class="cls-1" d="M391.11,144.84l-5.32,1.37a3.47,3.47,0,0,1-3.86-1.61l-1.9-3.28a16.54,16.54,0,0,0,3.18,2.16C388,146,391,144.8,391,144.8Z"/><path class="cls-3" d="M391.11,144.84l-5.32,1.37a3.47,3.47,0,0,1-3.86-1.61l-1.9-3.28"/><polyline class="cls-3" points="403 141.76 398.57 142.91 391.12 144.84"/><polyline class="cls-3" points="422.84 136.63 419.32 137.54 408.06 140.46 403.03 141.76"/><path class="cls-3" d="M402.47,198c0-7.46,15.7-13.54,35.1-13.59s35.13,6,35.15,13.41S457,211.32,437.63,211.37,402.48,205.4,402.47,198Z"/><path class="cls-3" d="M391.09,198c0-10.44,20.77-19,46.46-19s46.52,8.36,46.55,18.8"/><path class="cls-3" d="M477.81,175c4,2.76,6.24,6,6.25,9.43"/><path class="cls-3" d="M391.05,184.68c0-3.45,2.26-6.7,6.23-9.49,8-5.66,23-9.5,40.24-9.54s32.23,3.72,40.28,9.35"/><path class="cls-3" d="M484.1,197.75c0,10.44-20.78,18-46.46,18s-46.53-7.35-46.55-17.79"/><line class="cls-3" x1="484.06" y1="184.45" x2="484.1" y2="197.75"/><line class="cls-3" x1="391.09" y1="197.98" x2="391.05" y2="184.68"/><path class="cls-3" d="M397.27,175.22s0,0,0,0q12.93-23,25.88-31.14a29.59,29.59,0,0,1,8.28-3.71,22.89,22.89,0,0,1,10.5-.38,29,29,0,0,1,9.82,4q13,8.11,26,31h0"/><line class="cls-3" x1="451.72" y1="124.13" x2="451.76" y2="143.98"/><line class="cls-3" x1="432.07" y1="119.7" x2="440.73" y2="119.68"/><polyline class="cls-3" points="423.16 144.05 423.15 136.63 423.12 125.22"/><line class="cls-3" x1="431.4" y1="119.7" x2="431.45" y2="140.34"/><polyline class="cls-3" points="424.55 123.42 423.12 124.2 423.12 125.22"/><polyline class="cls-3" points="432.06 119.7 431.39 119.7 425.6 122.85"/><line class="cls-3" x1="441.9" y1="119.68" x2="441.94" y2="139.97"/><polyline class="cls-3" points="449.82 123.28 449.36 123.07 441.89 119.68 440.73 119.68"/><line class="cls-3" x1="451.72" y1="124.13" x2="449.97" y2="123.34"/><path class="cls-3" d="M425.48,107.95c.69-10.31,23.08-10.37,23.83-.06"/><path class="cls-4" d="M399,80a12.93,12.93,0,0,0,.77,2.85c1.94,4.85,6.43,7.32,8.76,8.38a80.09,80.09,0,0,0,10.76,4.22c3,.74,6.46,3.71,6.46,3.71"/><polyline class="cls-4" points="366.61 106.86 357.22 3.63 394.86 0.54 399.05 80.03 399.81 82.88 400.06 83.75"/><path class="cls-4" d="M378.73,128.66c1.12,2.5,5.29,9.33,6.47,10.32s3.68,4.82,5.76,5.82c0,0-2.92,1.18-7.75-1.31a16.54,16.54,0,0,1-3.18-2.16c-3.46-2.9-6.44-7.25-9-11.56-3.34-5.56-2.35-6.58-3.12-9.91s-1.75-9.83-1.26-13"/><polyline class="cls-3" points="449.36 119.98 449.36 120.99 449.36 123.07"/><path class="cls-3" d="M425.46,108v-7a4.31,4.31,0,0,1,.37-1.77c3-6.9,23.49-6,23.5,1.71l0,7"/><path class="cls-4" d="M391.11,144.84l-.15,0"/><line class="cls-3" x1="391.12" y1="144.84" x2="391.11" y2="144.84"/><path class="cls-4" d="M386.49,124.29s3.69,7.82,5.19,9.92c1.29,1.8,4.95,7,6.89,8.7a2.71,2.71,0,0,0,.8.54l-3.84,1.61a11.86,11.86,0,0,1-4.42-.22"/><path class="cls-4" d="M399.37,143.45c1.83,1.16,7.08-.79,7.08-.79l3.42-1.41"/><path class="cls-3" d="M399.37,141.89a12.36,12.36,0,0,0,3.63-.13h0c1.31-.21,2.34-.5,2.34-.5"/><path class="cls-4" d="M407.68,135.76a12.93,12.93,0,0,1,5.49-2.34"/><path class="cls-4" d="M409.56,138.26c1.3-.17,5.12-2.51,5.12-2.51"/><polyline class="cls-3" points="415.24 105.88 416.33 105.61 420.34 104.63 425.44 103.39"/><path class="cls-4" d="M399.32,119.78c-.66,6,2.62,14,4.33,16.16,1.45,1.83,1.56,3.08,4.41,4.52.51.25,1.1.52,1.81.8a8.63,8.63,0,0,0,9-1.68A17.35,17.35,0,0,1,420,138.2l-.71-.66-2-1.81c-2.05-5.53-4-13.24-4-13.24-2.26-3.41-1.28-12.16-1.28-12.16l4.21-4.73,2.27-2.55"/><line class="cls-4" x1="395.52" y1="112.25" x2="396.33" y2="113.99"/><line class="cls-4" x1="401.5" y1="106.24" x2="402.32" y2="107.97"/><line class="cls-4" x1="396.49" y1="102.25" x2="397.31" y2="103.98"/><line class="cls-4" x1="395.51" y1="108.25" x2="396.32" y2="109.99"/><line class="cls-4" x1="391.53" y1="116.26" x2="392.34" y2="118"/><line class="cls-4" x1="394.54" y1="121.26" x2="395.35" y2="122.99"/><line class="cls-4" x1="386.56" y1="102.37" x2="387.37" y2="104.1"/><line class="cls-4" x1="380.5" y1="114.02" x2="381.51" y2="116.29"/><line class="cls-4" x1="374.77" y1="121.19" x2="376.02" y2="123.04"/><line class="cls-4" x1="405.45" y1="126.46" x2="406.79" y2="128.19"/><line class="cls-4" x1="407.76" y1="118.96" x2="409.64" y2="121.1"/><line class="cls-4" x1="404.71" y1="131.46" x2="406.13" y2="132.46"/><line class="cls-4" x1="409.75" y1="128.18" x2="410.54" y2="129.2"/><line class="cls-4" x1="393.04" y1="129.24" x2="394.56" y2="129.87"/><line class="cls-4" x1="394.57" y1="134.06" x2="395.98" y2="135.24"/><line class="cls-4" x1="373.14" y1="108.31" x2="373.97" y2="110.04"/><line class="cls-4" x1="383.18" y1="127.38" x2="384.18" y2="128.25"/><line class="cls-4" x1="385.03" y1="132.51" x2="385.68" y2="133.48"/><line class="cls-4" x1="377.19" y1="131.53" x2="378.73" y2="132.53"/><line class="cls-4" x1="378.87" y1="137.08" x2="380.02" y2="138.33"/><line class="cls-4" x1="384.87" y1="68.25" x2="385.52" y2="69.41"/><line class="cls-4" x1="391.43" y1="77.56" x2="392.25" y2="79.06"/><line class="cls-4" x1="379.3" y1="78.34" x2="379.88" y2="80.08"/><line class="cls-4" x1="373.5" y1="88.11" x2="373.92" y2="89.71"/><line class="cls-4" x1="366.38" y1="68.29" x2="367.37" y2="69.46"/><line class="cls-3" x1="478.37" y1="188.68" x2="467.97" y2="191.03"/><line class="cls-3" x1="427.76" y1="210.84" x2="424.51" y2="215.12"/><line class="cls-3" x1="451.94" y1="214.92" x2="448.76" y2="211.14"/><line class="cls-3" x1="457.24" y1="186.63" x2="464.44" y2="182.38"/><line class="cls-3" x1="412.47" y1="213.12" x2="418.88" y2="209.33"/><line class="cls-3" x1="430.55" y1="184.38" x2="427.73" y2="178.98"/><line class="cls-3" x1="413.3" y1="181.79" x2="419.99" y2="186.22"/><line class="cls-3" x1="404.93" y1="192.97" x2="393.95" y2="191.32"/><line class="cls-3" x1="391.09" y1="200.63" x2="402.54" y2="199.95"/><line class="cls-3" x1="456.52" y1="208.96" x2="463.22" y2="212.89"/><line class="cls-3" x1="469.78" y1="203.2" x2="480.45" y2="204.97"/><line class="cls-3" x1="472.57" y1="198.75" x2="483.98" y2="199.05"/><polygon class="cls-5" points="402.47 197.95 0.94 803.63 950.93 794.53 472.72 197.78 402.47 197.95"/></g></g></svg>