<svg xmlns="http://www.w3.org/2000/svg" viewBox="0 0 330.88 187.14"><defs><style>.cls-1{fill:#fff;}.cls-2{fill:#e30613;}.cls-3,.cls-4{fill:none;}.cls-3,.cls-5{stroke:#1d1d1b;}.cls-3,.cls-4,.cls-5{stroke-miterlimit:10;}.cls-4{stroke:#fff;}.cls-5{fill:#1d1d1b;}</style></defs><title>Asset 4</title><g id="Layer_2" data-name="Layer 2"><g id="Layer_1-2" data-name="Layer 1"><path class="cls-1" d="M52.88,62.1v5.45a43.51,43.51,0,0,1-5.05.57l0-.27L46.39,62.1C47.74,62,49.13,62,50.56,62,51.37,62,52.14,62,52.88,62.1Z"/><path class="cls-1" d="M272.32,113.82c14,18.81,58.17,72.19,58.17,72.19H171.73s18.26-43.52,23.76-50.24a129.08,129.08,0,0,0,8.89-13.41h0a177.14,177.14,0,0,0,10.74-20.9c.83-2,1.59-3.91,2.25-5.8a54.84,54.84,0,0,0,2.32-8.58,22.33,22.33,0,0,0,.29-6.62s.9-.84,2.23-1.94c.48-.4,1-.84,1.61-1.28.29-.23.6-.46.91-.69,2-1.47,4.21-2.85,5.75-3.07A85.68,85.68,0,0,1,241,72.91c1.78,0,3.65.06,5.51.19.67,0,1.35.1,2,.18,6.34.65,12.09,2.35,13,6.21.07.31.15.63.22,1,.64,2.68,1.44,5.92,2.26,9.24,1.42,5.75,2.9,11.73,3.69,15.36.23,1,.4,1.88.5,2.47S269.8,110.41,272.32,113.82Z"/><path class="cls-1" d="M63.89,105c.79-3.63,2.27-9.61,3.69-15.36.82-3.32,1.62-6.56,2.26-9.24.07-.33.15-.65.22-1,.91-3.86,6.66-5.56,13-6.21.66-.08,1.34-.14,2-.18,1.86-.13,3.73-.19,5.51-.19a85.68,85.68,0,0,1,10.48.57c1.54.22,3.75,1.6,5.75,3.07.31.23.62.46.91.69.57.44,1.12.88,1.6,1.28,1.33,1.1,2.24,1.94,2.24,1.94a22.33,22.33,0,0,0,.29,6.62,54.84,54.84,0,0,0,2.32,8.58c.66,1.89,1.42,3.84,2.25,5.8,6.11,14.48,16.09,30,19.64,34.31,5,6.15,22.89,43.86,25.9,50.24H1.06s9.28-11.21,20.68-25.16C26,155.63,30.56,150,35.05,144.48s9.12-11.33,13.15-16.42c8.6-10.86,15-19.26,15.19-20.54C63.49,106.93,63.66,106.08,63.89,105Z"/><path class="cls-1" d="M90.56,70l0,2.92c-1.78,0-3.65.06-5.51.19v-.19s.53-2.25.91-5l.38.06h2.88v1.37Z"/><path class="cls-1" d="M246.49,72.91v.19c-1.86-.13-3.73-.19-5.51-.19L241,70l1.33-.67V67.95h2.88l.38-.06C246,70.66,246.49,72.91,246.49,72.91Z"/><path class="cls-1" d="M285.16,62.1l-1.42,5.75,0,.27a43.51,43.51,0,0,1-5.05-.57V62.1c.74-.07,1.51-.11,2.32-.11C282.42,62,283.81,62,285.16,62.1Z"/><path class="cls-1" d="M101.06,73.48a85.68,85.68,0,0,0-10.48-.57l0-2.92-1.33-.67V67.95h1.33L94,66.1,97.56,63l4.17-2V57.82a41,41,0,0,1,3.66,5.5c1.17,2.34,3.67,10,1.42,13.23C104.81,75.08,102.6,73.7,101.06,73.48Z"/><path class="cls-1" d="M241,67.95h1.33v1.37L241,70l0,2.92a85.68,85.68,0,0,0-10.48.57c-1.54.22-3.75,1.6-5.75,3.07-2.25-3.23.25-10.89,1.42-13.23a41,41,0,0,1,3.66-5.5V61L234,63l3.58,3.11Z"/><path class="cls-1" d="M313.21,44c0,3.5-1.52,7.34-3.22,10.5-5.33,9.89-13.85,8.11-24.83,7.61C283.81,62,282.42,62,281,62c-.81,0-1.58,0-2.32.11a17.89,17.89,0,0,0-8.39,2.82c-6.2,4.1-8,11.52-8.57,15.53-.07-.33-.15-.65-.22-1-.91-3.86-6.66-5.56-13-6.21,0,0,2.5-14.62,3.17-17.62s4.5-11.67,4.66-15.34c.15-3.28-.77-15.8-6.12-22.8a13.37,13.37,0,0,0-2-2.2s-3.5-2.66-5.84-3.16h-5l-.1-2.7,27.27-1c1,18,12,20,12,20h23C310,28.49,313.21,40.49,313.21,44Zm-7,2.75V46a3.75,3.75,0,0,0-3.75-3.75h0a4.59,4.59,0,0,0-4.57-4H280.35a4.6,4.6,0,0,0-4.61,4.61,2,2,0,0,0-1.42.59,2,2,0,0,0-.58,1.41v3.64a2,2,0,0,0,2,2h.14a4.59,4.59,0,0,0,4.47,3.5h17.53a4.6,4.6,0,0,0,4.48-3.54l.13,0A3.75,3.75,0,0,0,306.24,46.74Z"/><polygon class="cls-2" points="300.16 1.99 298.24 19.74 289.28 19.11 284.45 18.77 275.12 18.11 277.27 0.53 300.16 1.99"/><path class="cls-2" d="M278.67,67.55a43.51,43.51,0,0,0,5.05.57,59.93,59.93,0,0,0,9.44-.27l-1.42,15.36c-8.59,1.24-16.54.31-23.58-3.72l2.12-14.57A32.22,32.22,0,0,0,278.67,67.55Z"/><path class="cls-1" d="M289.28,19.11l0,.63v8.75h-6.5l1.71-9.72Z"/><path class="cls-1" d="M237.22,9.46l.1,2.7c-1,0-5.83,2.5-7.5,6.61s-7.5,11.89-3.66,27.08c.79,3.17-.34,5.64-.84,7.47s-2.5,9.34-2.83,11-1.5,7.81,1.34,12.89c-.58.44-1.13.88-1.61,1.28l-56.45-1-56.45,1c-.48-.4-1-.84-1.6-1.28,2.84-5.08,1.67-11.21,1.34-12.89s-2.33-9.19-2.83-11-1.64-4.3-.84-7.47c3.84-15.19-2-23-3.66-27.08s-6.5-6.61-7.5-6.61l.1-2.7L165.77,12Z"/><path class="cls-1" d="M94.33,9.46l-.1,2.7h-5c-2.34.5-5.84,3.16-5.84,3.16a13.37,13.37,0,0,0-2,2.2c-5.35,7-6.27,19.52-6.12,22.8.16,3.67,4,12.34,4.66,15.34s3.17,17.62,3.17,17.62c-6.34.65-12.09,2.35-13,6.21-.07.31-.15.63-.22,1-.54-4-2.37-11.43-8.57-15.53a17.89,17.89,0,0,0-8.39-2.82C52.14,62,51.37,62,50.56,62c-1.43,0-2.82,0-4.17.11-11,.5-19.5,2.28-24.83-7.61-1.7-3.16-3.22-7-3.22-10.5s3.22-15.5,13.72-15.5h23s11-2,12-20Zm-36.52,39V44.85a2,2,0,0,0-.59-1.41,2,2,0,0,0-1.41-.59,4.6,4.6,0,0,0-4.61-4.61H33.67a4.59,4.59,0,0,0-4.57,4h0A3.75,3.75,0,0,0,25.31,46v.75a3.75,3.75,0,0,0,3.75,3.75l.13,0A4.6,4.6,0,0,0,33.67,54H51.2a4.59,4.59,0,0,0,4.47-3.5h.14A2,2,0,0,0,57.81,48.49Z"/><path class="cls-2" d="M52.88,67.55a32.22,32.22,0,0,0,8.39-2.63l2.12,14.57c-7,4-15,5-23.58,3.72L38.39,67.85a59.93,59.93,0,0,0,9.44.27A43.51,43.51,0,0,0,52.88,67.55Z"/><polygon class="cls-2" points="54.28 0.53 56.43 18.11 47.1 18.77 42.27 19.11 33.31 19.74 31.39 1.99 54.28 0.53"/><path class="cls-1" d="M47.1,18.77l1.71,9.72h-6.5V19.74l0-.63Z"/><line class="cls-3" x1="165.77" y1="77.49" x2="109.32" y2="78.52"/><polyline class="cls-3" points="67.06 8.49 94.33 9.46 165.77 11.99"/><path class="cls-3" d="M67.06,8.49c-1,18-12,20-12,20h-23c-10.5,0-13.72,12-13.72,15.5s1.52,7.34,3.22,10.5c5.33,9.89,13.85,8.11,24.83,7.61C47.74,62,49.13,62,50.56,62c.81,0,1.58,0,2.32.11a17.89,17.89,0,0,1,8.39,2.82c6.2,4.1,8,11.52,8.57,15.53a23.55,23.55,0,0,1,.22,2.76"/><line class="cls-3" x1="42.31" y1="28.49" x2="42.31" y2="19.74"/><polygon class="cls-3" points="47.1 18.77 56.43 18.11 54.28 0.53 31.39 1.99 33.31 19.74 42.27 19.11 47.1 18.77"/><path class="cls-4" d="M29.1,42.25a3.86,3.86,0,0,0,0,.6v6.53a4.18,4.18,0,0,0,.13,1.07A4.6,4.6,0,0,0,33.67,54H51.2a4.59,4.59,0,0,0,4.47-3.5,4.5,4.5,0,0,0,.14-1.11V42.85a4.6,4.6,0,0,0-4.61-4.61H33.67A4.59,4.59,0,0,0,29.1,42.25Z"/><path class="cls-3" d="M29.06,50.49a3.75,3.75,0,0,1-3.75-3.75V46a3.75,3.75,0,0,1,3.75-3.75"/><path class="cls-4" d="M39.81,44c3.25-.5,3-1.25,4.75-1.75a7,7,0,0,1,3.25.22c1.1.26,2.14.59,2.75.65a46.58,46.58,0,0,0,5.25-.26,2,2,0,0,1,1.41.59,2,2,0,0,1,.59,1.41v3.64a2,2,0,0,1-2,2h-.14"/><path class="cls-4" d="M48.2,49.35c.56-.62,1.07-1.24,1.86-1.11,1.5.25,5.75,1.14,5.75,1.14"/><path class="cls-4" d="M39.81,48.24a11.36,11.36,0,0,0,6.5,2.25,2.6,2.6,0,0,0,1.89-1.13"/><polyline class="cls-4" points="47.81 42.46 48.2 49.35 48.2 49.36"/><line class="cls-3" x1="46.39" y1="62.1" x2="47.81" y2="67.85"/><polyline class="cls-3" points="52.88 62.1 52.88 67.55 52.88 67.85"/><path class="cls-3" d="M61.27,64.92l2.12,14.57c-7,4-15,5-23.58,3.72L38.39,67.85a59.93,59.93,0,0,0,9.44.27,43.51,43.51,0,0,0,5.05-.57A32.22,32.22,0,0,0,61.27,64.92Z"/><line class="cls-3" x1="47.1" y1="18.77" x2="48.81" y2="28.49"/><path class="cls-3" d="M162.39,186.93,162,186c-3-6.38-20.87-44.09-25.9-50.24-3.55-4.34-13.53-19.83-19.64-34.31-.83-2-1.59-3.91-2.25-5.8a54.84,54.84,0,0,1-2.32-8.58,22.33,22.33,0,0,1-.29-6.62s-.91-.84-2.24-1.94c-.48-.4-1-.84-1.6-1.28-.29-.23-.6-.46-.91-.69-2-1.47-4.21-2.85-5.75-3.07a85.68,85.68,0,0,0-10.48-.57c-1.78,0-3.65.06-5.51.19-.67,0-1.35.1-2,.18-6.34.65-12.09,2.35-13,6.21-.07.31-.15.63-.22,1-.64,2.68-1.44,5.92-2.26,9.24-1.42,5.75-2.9,11.73-3.69,15.36-.23,1-.4,1.88-.5,2.47-.21,1.28-6.59,9.68-15.19,20.54-4,5.09-8.55,10.73-13.15,16.42s-9,11.15-13.31,16.37C10.34,174.8,1.06,186,1.06,186H330.49"/><path class="cls-3" d="M63.89,105c6.5-4.89,10.17-13.89,10.17-13.89"/><path class="cls-3" d="M114.18,95.67a0,0,0,0,1,0,0c-5.44-3.51-8.78-11.94-8.78-11.94"/><path class="cls-3" d="M111.85,87.08a13.21,13.21,0,0,1-3.79-6.26"/><path class="cls-3" d="M116.42,101.46c-9-3-11-7.3-11-7.3"/><path class="cls-3" d="M67.58,89.69a67.59,67.59,0,0,0,13.15-8.87"/><path class="cls-4" d="M106.81,76.55c2.25-3.23-.25-10.89-1.42-13.23a41,41,0,0,0-3.66-5.5V61l-4.17,2L94,66.1l-3.42,1.85H86.35"/><path class="cls-3" d="M107.72,77.24c2.84-5.08,1.67-11.21,1.34-12.89s-2.33-9.19-2.83-11-1.64-4.3-.84-7.47c3.84-15.19-2-23-3.66-27.08s-6.5-6.61-7.5-6.61h-5c-2.34.5-5.84,3.16-5.84,3.16a13.37,13.37,0,0,0-2,2.2c-5.35,7-6.27,19.52-6.12,22.8.16,3.67,4,12.34,4.66,15.34s3.17,17.62,3.17,17.62"/><path class="cls-4" d="M96.56,39.32a46,46,0,0,0-5.25.47,12.87,12.87,0,0,0-3,.78.16.16,0,0,0,.05.31l3.33.4,6.6.78a.16.16,0,0,1,0,.3l-5.14,2.39c-3.38,1.59-7,3.33-7,3.47a64.13,64.13,0,0,0,7,1.07c2.63.35,5.25.66,6.34.8a.16.16,0,0,1,0,.31L94.37,53l-7.48,3.69A.17.17,0,0,0,87,57l8.23-.27,6.53-.21"/><path class="cls-4" d="M86.23,61l9-4.29,5.22-2.49a.16.16,0,0,0,0-.3l-6-.94-6.74-1.06a.16.16,0,0,1,0-.31l5.6-2.31,7.19-3a.16.16,0,0,0,0-.31l-7.11-1.27L86.78,43.6a.16.16,0,0,1,0-.3l5-2,4.83-2"/><path class="cls-4" d="M86.23,61a28.43,28.43,0,0,1-.26,6.9c-.38,2.77-.91,5-.91,5"/><path class="cls-4" d="M103.89,30v0c-.12-.23-1.66-3.14-2-3s-4.83-5-6.66-7.25-2.5-2.42-4.67-2.08a9.14,9.14,0,0,0-5.5,3.16c-1.17,1.5-4.33,6.17-4.33,9.34a9.74,9.74,0,0,0,5.5,9.16c1.12.63,3.09.6,5.07.34a42.82,42.82,0,0,0,6.26-1.42"/><path class="cls-4" d="M81.35,17.52C84.73,16,87.06,14.16,88.73,14s2.5-.17,5.25,1l2.89,1.44a8.47,8.47,0,0,1,3.71,3.64,25.67,25.67,0,0,1,1.15,2.59c.48,1.29,2.06,7,2.15,7.31"/><line class="cls-3" x1="101.73" y1="69.32" x2="102.73" y2="69.32"/><line class="cls-3" x1="100.52" y1="66.1" x2="101.73" y2="64.97"/><line class="cls-3" x1="95.89" y1="69.32" x2="97.03" y2="69.32"/><line class="cls-3" x1="103.89" y1="72.32" x2="104.89" y2="72.32"/><line class="cls-3" x1="89.23" y1="69.32" x2="90.56" y2="69.99"/><line class="cls-3" x1="93.37" y1="71.32" x2="93.98" y2="71.32"/><line class="cls-3" x1="165.77" y1="77.49" x2="222.22" y2="78.52"/><polyline class="cls-3" points="264.49 8.49 237.22 9.46 165.77 11.99"/><path class="cls-3" d="M264.49,8.49c1,18,12,20,12,20h23c10.5,0,13.72,12,13.72,15.5s-1.52,7.34-3.22,10.5c-5.33,9.89-13.85,8.11-24.83,7.61C283.81,62,282.42,62,281,62c-.81,0-1.58,0-2.32.11a17.89,17.89,0,0,0-8.39,2.82c-6.2,4.1-8,11.52-8.57,15.53a23.55,23.55,0,0,0-.22,2.76"/><line class="cls-3" x1="289.24" y1="28.49" x2="289.24" y2="19.74"/><polygon class="cls-3" points="284.45 18.77 275.12 18.11 277.27 0.53 300.16 1.99 298.24 19.74 289.28 19.11 284.45 18.77"/><path class="cls-4" d="M302.45,42.25a3.86,3.86,0,0,1,0,.6v6.53a4.18,4.18,0,0,1-.13,1.07A4.6,4.6,0,0,1,297.88,54H280.35a4.59,4.59,0,0,1-4.47-3.5,4.5,4.5,0,0,1-.14-1.11V42.85a4.6,4.6,0,0,1,4.61-4.61h17.53A4.59,4.59,0,0,1,302.45,42.25Z"/><path class="cls-4" d="M302.49,50.49a3.75,3.75,0,0,0,3.75-3.75V46a3.75,3.75,0,0,0-3.75-3.75"/><path class="cls-4" d="M291.74,44c-3.25-.5-3-1.25-4.75-1.75a7,7,0,0,0-3.25.22c-1.1.26-2.14.59-2.75.65a46.58,46.58,0,0,1-5.25-.26,2,2,0,0,0-1.42.59,2,2,0,0,0-.58,1.41v3.64a2,2,0,0,0,2,2h.14"/><path class="cls-4" d="M283.35,49.35c-.56-.62-1.07-1.24-1.86-1.11-1.5.25-5.75,1.14-5.75,1.14"/><path class="cls-4" d="M291.74,48.24a11.36,11.36,0,0,1-6.5,2.25,2.6,2.6,0,0,1-1.89-1.13"/><polyline class="cls-4" points="283.74 42.46 283.35 49.35 283.35 49.36"/><line class="cls-3" x1="285.16" y1="62.1" x2="283.74" y2="67.85"/><polyline class="cls-3" points="278.67 62.1 278.67 67.55 278.67 67.85"/><path class="cls-3" d="M270.28,64.92l-2.12,14.57c7,4,15,5,23.58,3.72l1.42-15.36a59.93,59.93,0,0,1-9.44.27,43.51,43.51,0,0,1-5.05-.57A32.22,32.22,0,0,1,270.28,64.92Z"/><line class="cls-3" x1="284.45" y1="18.77" x2="282.74" y2="28.49"/><path class="cls-3" d="M204.38,122.36a129.08,129.08,0,0,1-8.89,13.41C190,142.49,171.73,186,171.73,186"/><path class="cls-3" d="M330.49,186s-44.2-53.38-58.17-72.19c-2.52-3.41-4.06-5.68-4.16-6.3s-.27-1.44-.5-2.47c-.79-3.63-2.27-9.61-3.69-15.36-.82-3.32-1.62-6.56-2.26-9.24-.07-.33-.15-.65-.22-1-.91-3.86-6.66-5.56-13-6.21-.66-.08-1.34-.14-2-.18-1.86-.13-3.73-.19-5.51-.19a85.68,85.68,0,0,0-10.48.57c-1.54.22-3.75,1.6-5.75,3.07-.31.23-.62.46-.91.69-.58.44-1.13.88-1.61,1.28-1.33,1.1-2.23,1.94-2.23,1.94a22.33,22.33,0,0,1-.29,6.62,54.84,54.84,0,0,1-2.32,8.58c-.66,1.89-1.42,3.84-2.25,5.8a177.14,177.14,0,0,1-10.74,20.9"/><path class="cls-3" d="M267.66,105c-6.5-4.89-10.17-13.89-10.17-13.89"/><path class="cls-3" d="M217.37,95.67a0,0,0,0,0,0,0c5.44-3.51,8.78-11.94,8.78-11.94"/><path class="cls-3" d="M219.7,87.08a13.21,13.21,0,0,0,3.79-6.26"/><path class="cls-3" d="M215.13,101.46c9-3,11-7.3,11-7.3"/><path class="cls-3" d="M264,89.69a67.59,67.59,0,0,1-13.15-8.87"/><path class="cls-4" d="M224.74,76.55c-2.25-3.23.25-10.89,1.42-13.23a41,41,0,0,1,3.66-5.5V61L234,63l3.58,3.11L241,67.95h4.21"/><path class="cls-3" d="M223.83,77.24C221,72.16,222.16,66,222.49,64.35s2.33-9.19,2.83-11,1.63-4.3.84-7.47c-3.84-15.19,2-23,3.66-27.08s6.5-6.61,7.5-6.61h5c2.34.5,5.84,3.16,5.84,3.16a13.37,13.37,0,0,1,2,2.2c5.35,7,6.27,19.52,6.12,22.8-.16,3.67-4,12.34-4.66,15.34s-3.17,17.62-3.17,17.62"/><path class="cls-4" d="M235,39.32a45.73,45.73,0,0,1,5.24.47,12.83,12.83,0,0,1,3,.78.16.16,0,0,1-.05.31l-3.34.4-6.59.78a.16.16,0,0,0,0,.3l5.14,2.39c3.38,1.59,7,3.33,7,3.47a64.13,64.13,0,0,1-7,1.07c-2.62.35-5.25.66-6.34.8a.16.16,0,0,0-.05.31L237.18,53l7.48,3.69a.17.17,0,0,1-.08.31l-8.23-.27-6.53-.21"/><path class="cls-4" d="M245.32,61l-9-4.29-5.22-2.49a.16.16,0,0,1,0-.3l6-.94,6.74-1.06a.16.16,0,0,0,0-.31l-5.6-2.31-7.19-3a.16.16,0,0,1,0-.31l7.11-1.27,6.46-1.15a.16.16,0,0,0,0-.3l-5-2-4.82-2"/><path class="cls-4" d="M245.32,61a28.43,28.43,0,0,0,.26,6.9c.38,2.77.91,5,.91,5"/><path class="cls-4" d="M227.66,30v0c.12-.23,1.66-3.14,2-3s4.83-5,6.66-7.25,2.5-2.42,4.67-2.08a9.14,9.14,0,0,1,5.5,3.16c1.17,1.5,4.33,6.17,4.33,9.34a9.74,9.74,0,0,1-5.5,9.16c-1.13.63-3.09.6-5.08.34A42.51,42.51,0,0,1,234,38.24"/><path class="cls-4" d="M250.2,17.52c-3.38-1.53-5.71-3.36-7.38-3.53s-2.5-.17-5.25,1l-2.89,1.44A8.47,8.47,0,0,0,231,20.07a25.67,25.67,0,0,0-1.15,2.59c-.48,1.29-2.06,7-2.15,7.31"/><line class="cls-3" x1="229.82" y1="69.32" x2="228.82" y2="69.32"/><line class="cls-3" x1="231.03" y1="66.1" x2="229.82" y2="64.97"/><line class="cls-3" x1="235.66" y1="69.32" x2="234.52" y2="69.32"/><line class="cls-3" x1="227.66" y1="72.32" x2="226.66" y2="72.32"/><line class="cls-3" x1="242.32" y1="69.32" x2="240.99" y2="69.99"/><line class="cls-3" x1="238.18" y1="71.32" x2="237.57" y2="71.32"/><path class="cls-3" d="M204.38,122.36h0c16.68-9.2,37.93-5.55,37.93-5.55"/><path class="cls-3" d="M272.32,113.82c-17.26-6.66-27.12-5.68-27.12-5.68"/><path class="cls-3" d="M48.2,128.06c15.53-9.57,38.54-7.28,38.54-7.28"/><path class="cls-3" d="M35.05,144.48c18.68-6,22.76-2.59,22.76-2.59"/><path class="cls-3" d="M21.74,160.85a45.49,45.49,0,0,1,16.65,0"/><line class="cls-5" x1="194" y1="18.77" x2="196.06" y2="19.74"/><line class="cls-5" x1="171.73" y1="38.24" x2="173.56" y2="42.12"/><line class="cls-5" x1="200.81" y1="51.74" x2="202.06" y2="53.99"/><line class="cls-5" x1="213.06" y1="29.74" x2="215.13" y2="32.49"/><line class="cls-5" x1="154.06" y1="21.24" x2="155.56" y2="23.63"/><line class="cls-5" x1="139.81" y1="51.74" x2="141.81" y2="53.99"/><line class="cls-5" x1="130.81" y1="65.53" x2="133.31" y2="67.85"/><line class="cls-5" x1="126.56" y1="23.63" x2="126.56" y2="25.24"/><line class="cls-5" x1="121.06" y1="38.24" x2="123.31" y2="40.18"/><line class="cls-5" x1="155.56" y1="42.46" x2="157.56" y2="44.7"/><line class="cls-5" x1="175.81" y1="60.99" x2="177.81" y2="64.34"/><line class="cls-5" x1="159.56" y1="64.34" x2="161.06" y2="66.69"/><line class="cls-5" x1="209.81" y1="60.99" x2="211.56" y2="62.67"/><line class="cls-5" x1="196.06" y1="67.85" x2="198.06" y2="69.99"/><line class="cls-5" x1="261.49" y1="19.25" x2="262.58" y2="21.24"/><line class="cls-5" x1="266.56" y1="38.24" x2="267.66" y2="42.12"/><line class="cls-5" x1="261.49" y1="52.86" x2="262.58" y2="55.49"/><line class="cls-5" x1="256.34" y1="64.34" x2="257.49" y2="66.1"/><line class="cls-5" x1="109.96" y1="17.49" x2="111.85" y2="20.25"/><line class="cls-5" x1="114.18" y1="48.22" x2="116.42" y2="52.86"/><line class="cls-5" x1="67.06" y1="36.99" x2="68.98" y2="39.21"/><line class="cls-5" x1="63.89" y1="50.54" x2="67.48" y2="54.18"/><line class="cls-5" x1="70.06" y1="15.49" x2="72.56" y2="17.49"/><line class="cls-5" x1="72.56" y1="64.34" x2="70.06" y2="60.99"/><line class="cls-5" x1="284.45" y1="32.49" x2="285.16" y2="34.16"/><line class="cls-5" x1="300.16" y1="33.32" x2="300.16" y2="35.49"/><line class="cls-5" x1="306.24" y1="38.24" x2="307.73" y2="40.18"/><line class="cls-5" x1="289.24" y1="57.82" x2="291.74" y2="59.49"/><line class="cls-5" x1="300.16" y1="55.49" x2="302.49" y2="56.97"/><line class="cls-5" x1="278.68" y1="56.97" x2="275.74" y2="55.49"/><line class="cls-5" x1="43.91" y1="32.49" x2="46.39" y2="34.41"/><line class="cls-5" x1="33.06" y1="32.49" x2="35.05" y2="35.49"/><line class="cls-5" x1="27.19" y1="54.18" x2="30.07" y2="55.49"/><line class="cls-5" x1="39.81" y1="56.97" x2="42.44" y2="57.82"/><line class="cls-5" x1="52.88" y1="56.23" x2="56.43" y2="57.82"/></g></g></svg>