<svg xmlns="http://www.w3.org/2000/svg" viewBox="0 0 127.44 216.37"><defs><style>.cls-1{fill:#1d1d1b;}.cls-2{fill:#fff;}.cls-3,.cls-4{fill:none;stroke-miterlimit:10;}.cls-3{stroke:#fff;}.cls-4{stroke:#1d1d1b;}</style></defs><title>Asset 1</title><g id="Layer_2" data-name="Layer 2"><g id="Layer_1-2" data-name="Layer 1"><path class="cls-1" d="M40.18,175.2c8-5.64,23.06-9.44,40.26-9.44s32.22,3.8,40.26,9.45h0c4,2.77,6.23,6,6.23,9.45V198c0-10.44-20.82-18.91-46.5-18.91S33.93,187.53,33.93,198v-13.3C33.93,181.22,36.21,178,40.18,175.2Z"/><path class="cls-1" d="M120.7,175.21c-8-5.65-23.06-9.45-40.26-9.45s-32.21,3.8-40.26,9.44q13-22.93,26-31.08a29.59,29.59,0,0,1,8.29-3.69,22.89,22.89,0,0,1,10.5-.35,29,29,0,0,1,9.81,4Q107.72,152.26,120.7,175.21Z"/><path class="cls-1" d="M80.44,179.06c25.68,0,46.5,8.47,46.5,18.91s-20.82,17.9-46.5,17.9S33.93,208.41,33.93,198,54.75,179.06,80.44,179.06ZM115.56,198c0-7.46-15.72-13.5-35.12-13.5s-35.13,6-35.13,13.5,15.73,13.5,35.13,13.5S115.56,205.42,115.56,198Z"/><path class="cls-2" d="M80.44,184.47c19.4,0,35.12,6,35.12,13.5s-15.72,13.5-35.12,13.5S45.31,205.42,45.31,198,61,184.47,80.44,184.47Z"/><path class="cls-1" d="M94.74,124.27v19.85a29,29,0,0,0-9.81-4V119.79l7.46,3.41.46.21,0,.21.11-.15Z"/><path class="cls-2" d="M95.08,113.17a6,6,0,0,1-1,2.72A8.28,8.28,0,0,0,92.39,114v-6A6.78,6.78,0,0,1,95.08,113.17Z"/><path class="cls-2" d="M95.08,119.17c0,1.26-1.19,3.13-2.08,4.3l-.15-.06-.46-2.29a.91.91,0,0,0,0-1v-5l.5,2.5a14.4,14.4,0,0,0,1.17-1.73A6,6,0,0,1,95.08,119.17Z"/><path class="cls-2" d="M94.06,115.89a14.4,14.4,0,0,1-1.17,1.73l-.5-2.5a.91.91,0,0,0,0-1V114A8.28,8.28,0,0,1,94.06,115.89Z"/><path class="cls-2" d="M93,123.47l-.11.15,0-.21Z"/><path class="cls-2" d="M92.39,114.11a.91.91,0,0,1,0,1Z"/><path class="cls-1" d="M92.39,121.12v2.08l-7.46-3.41H74.43l-5.8,3.13.4-.64c-.56-.67-.2-2.41-.2-3.11,0-2.74,4.77-5.79,11.62-5.79s11.63,3,11.63,5.79a2.67,2.67,0,0,0,.31.94Z"/><path class="cls-2" d="M92.39,119.79v.32a2.67,2.67,0,0,1-.31-.94c0-2.74-4.77-5.79-11.63-5.79s-11.62,3-11.62,5.79c0,.7-.36,2.44.2,3.11l-.4.64-.11.06v-5.87l.51-.83c-.43-.51-.32-1.65-.24-2.47,2.65-2.1,6.85-3.43,11.66-3.43s9.26,1.41,11.89,3.61a.61.61,0,0,1,0,.12v5.68Z"/><path class="cls-2" d="M92.39,114v.08a.61.61,0,0,0,0-.12Z"/><path class="cls-2" d="M92.39,108.54V114l0,0a2.18,2.18,0,0,1-.26-.82c0-2.74-4.77-5.79-11.63-5.79s-11.62,3-11.62,5.79c0,.16,0,.39,0,.64l-.27.22v-5.49c0-.18,0-.35,0-.52,2.63-2.22,6.94-3.64,11.91-3.64s9.29,1.42,11.92,3.64C92.38,108.19,92.39,108.36,92.39,108.54Z"/><path class="cls-2" d="M92.39,108v.51c0-.18,0-.35,0-.52Z"/><path class="cls-1" d="M92.39,101v7h0c-.72-10.31-23.11-10.31-23.83,0h0v-7a4.31,4.31,0,0,1,.37-1.77C71.87,92.38,92.39,93.28,92.39,101Z"/><path class="cls-1" d="M92.08,113.17a2.18,2.18,0,0,0,.26.82c-2.63-2.2-6.93-3.61-11.89-3.61s-9,1.33-11.66,3.43c0-.25,0-.48,0-.64,0-2.74,4.77-5.79,11.62-5.79S92.08,110.43,92.08,113.17Z"/><path class="cls-1" d="M92.37,108c-2.63-2.22-7-3.64-11.92-3.64S71.17,105.8,68.54,108C69.26,97.71,91.65,97.71,92.37,108Z"/><path class="cls-1" d="M84.93,119.79v20.29a22.89,22.89,0,0,0-10.5.35V119.79h10.5Z"/><path class="cls-1" d="M74.43,119.79v20.64a29.59,29.59,0,0,0-8.29,3.69V124.27l1.44-.78L68,124l.66-1.08Z"/><path class="cls-2" d="M69,116.28l-.51.83V114l.27-.22C68.71,114.63,68.6,115.77,69,116.28Z"/><path class="cls-2" d="M59.4,105.66l-4.22,4.72s-1,8.74,1.25,12.16c0,0,1.88,7.72,3.92,13.25l2,1.81L51,140.49l-5,1.29h0l-4.43,1.14-7.46,1.91h0l-.15,0S31,146,26.18,143.46A16.54,16.54,0,0,1,23,141.29c-3.45-2.91-6.42-7.27-9-11.58-3.33-5.57-2.33-6.59-3.1-9.92s-1.73-9.83-1.23-13L.54,3.54l37.64-3,4,79.5a12.93,12.93,0,0,0,.76,2.85c1.93,4.85,6.41,7.34,8.74,8.4a80.09,80.09,0,0,0,10.75,4.25c3,.75,6.45,3.73,6.45,3.73h0a4.31,4.31,0,0,0-.37,1.77v2.42l-5.11,1.23Z"/><path class="cls-2" d="M68.63,122.92,68,124l-.39-.51.94-.5h0Z"/><path class="cls-2" d="M68.54,108c0,.17,0,.34,0,.52V108Z"/><path class="cls-2" d="M68.52,117.11V123h0l-.94.5a9.16,9.16,0,0,1-1.75-4.32,5.94,5.94,0,0,1,.9-3.1A11.49,11.49,0,0,0,68,118Z"/><path class="cls-2" d="M68.52,114v3.08L68,118a11.49,11.49,0,0,1-1.24-1.93A8.5,8.5,0,0,1,68.52,114Z"/><path class="cls-2" d="M68.52,108.54V114a8.5,8.5,0,0,0-1.79,2,7,7,0,0,1-.9-2.9A6.78,6.78,0,0,1,68.52,108Z"/><path class="cls-1" d="M68.52,103.46V108a6.78,6.78,0,0,0-2.69,5.14,7,7,0,0,0,.9,2.9,5.94,5.94,0,0,0-.9,3.1,9.16,9.16,0,0,0,1.75,4.32l-1.44.78V136.7h-.31l-3.52.9-2-1.81c-2-5.53-3.92-13.25-3.92-13.25-2.25-3.42-1.25-12.16-1.25-12.16l4.22-4.72,4-1Z"/><path class="cls-2" d="M62.31,137.6l.71.66a17.35,17.35,0,0,0-1.17,1.37,8.63,8.63,0,0,1-9,1.66c-.71-.28-1.3-.55-1.81-.8Z"/><path class="cls-2" d="M46,141.78l5-1.29c.51.25,1.1.52,1.81.8l-3.42,1.4s-5.25,1.93-7.08.77a2.71,2.71,0,0,1-.8-.54L46,141.78Z"/><path class="cls-2" d="M42.35,143.46l-3.84,1.6a11.86,11.86,0,0,1-4.42-.23l7.46-1.91A2.71,2.71,0,0,0,42.35,143.46Z"/><path class="cls-1" d="M34.08,144.83l-5.32,1.36a3.47,3.47,0,0,1-3.86-1.62L23,141.29a16.54,16.54,0,0,0,3.17,2.17c4.83,2.5,7.75,1.33,7.75,1.33Z"/><path class="cls-3" d="M34.08,144.83l-5.32,1.36a3.47,3.47,0,0,1-3.86-1.62L23,141.29"/><polyline class="cls-3" points="45.98 141.78 41.55 142.92 34.09 144.83"/><polyline class="cls-3" points="65.83 136.7 62.31 137.6 51.04 140.49 46.01 141.78"/><path class="cls-3" d="M45.31,198c0-7.46,15.73-13.5,35.13-13.5s35.12,6,35.12,13.5-15.72,13.5-35.12,13.5S45.31,205.42,45.31,198Z"/><path class="cls-3" d="M33.93,198c0-10.44,20.82-18.91,46.51-18.91s46.5,8.47,46.5,18.91"/><path class="cls-3" d="M120.71,175.22c4,2.77,6.23,6,6.23,9.45"/><path class="cls-3" d="M33.93,184.67c0-3.45,2.28-6.69,6.25-9.47,8-5.64,23.06-9.44,40.26-9.44s32.22,3.8,40.26,9.45"/><path class="cls-3" d="M126.94,198c0,10.44-20.82,17.9-46.5,17.9S33.93,208.41,33.93,198"/><line class="cls-3" x1="126.94" y1="184.67" x2="126.94" y2="197.97"/><line class="cls-3" x1="33.93" y1="197.97" x2="33.93" y2="184.67"/><path class="cls-3" d="M40.17,175.22s0,0,0,0q13-22.93,26-31.08a29.59,29.59,0,0,1,8.29-3.69,22.89,22.89,0,0,1,10.5-.35,29,29,0,0,1,9.81,4q13,8.14,26,31.09h0"/><line class="cls-3" x1="94.74" y1="124.27" x2="94.74" y2="144.12"/><line class="cls-3" x1="75.1" y1="119.79" x2="83.76" y2="119.79"/><polyline class="cls-3" points="66.14 144.12 66.14 136.7 66.14 125.29"/><line class="cls-3" x1="74.43" y1="119.79" x2="74.43" y2="140.43"/><polyline class="cls-3" points="67.58 123.49 66.14 124.27 66.14 125.29"/><polyline class="cls-3" points="75.1 119.79 74.43 119.79 68.63 122.92"/><line class="cls-3" x1="84.93" y1="119.79" x2="84.93" y2="140.08"/><polyline class="cls-3" points="92.85 123.41 92.39 123.2 84.93 119.79 83.76 119.79"/><line class="cls-3" x1="94.74" y1="124.27" x2="93" y2="123.47"/><path class="cls-3" d="M68.54,108c.72-10.31,23.11-10.31,23.83,0"/><path class="cls-4" d="M42.18,80a12.93,12.93,0,0,0,.76,2.85c1.93,4.85,6.41,7.34,8.74,8.4a80.09,80.09,0,0,0,10.75,4.25c3,.75,6.45,3.73,6.45,3.73"/><polyline class="cls-4" points="9.68 106.79 0.54 3.54 38.18 0.54 42.18 80.04 42.94 82.89 43.18 83.76"/><path class="cls-4" d="M21.74,128.62C22.85,131.12,27,138,28.18,139s3.67,4.83,5.75,5.83c0,0-2.92,1.17-7.75-1.33A16.54,16.54,0,0,1,23,141.29c-3.45-2.91-6.42-7.27-9-11.58-3.33-5.57-2.33-6.59-3.1-9.92s-1.73-9.83-1.23-13"/><polyline class="cls-3" points="92.39 120.11 92.39 121.12 92.39 123.2"/><path class="cls-3" d="M68.52,108v-7a4.31,4.31,0,0,1,.37-1.77c3-6.89,23.5-6,23.5,1.77v7"/><path class="cls-4" d="M34.08,144.83l-.15,0"/><line class="cls-3" x1="34.09" y1="144.83" x2="34.08" y2="144.83"/><path class="cls-4" d="M29.51,124.27s3.67,7.83,5.17,9.93c1.29,1.8,4.93,7,6.87,8.72a2.71,2.71,0,0,0,.8.54l-3.84,1.6a11.86,11.86,0,0,1-4.42-.23"/><path class="cls-4" d="M42.35,143.46c1.83,1.16,7.08-.77,7.08-.77l3.42-1.4"/><path class="cls-3" d="M42.35,141.9a12.36,12.36,0,0,0,3.63-.12h0c1.31-.21,2.34-.49,2.34-.49"/><path class="cls-4" d="M50.68,135.79a12.93,12.93,0,0,1,5.5-2.33"/><path class="cls-4" d="M52.55,138.29c1.3-.17,5.13-2.5,5.13-2.5"/><polyline class="cls-3" points="58.31 105.93 59.4 105.66 63.41 104.69 68.52 103.46"/><path class="cls-4" d="M42.35,119.79c-.67,6,2.59,14,4.29,16.17,1.45,1.83,1.55,3.08,4.4,4.53.51.25,1.1.52,1.81.8a8.63,8.63,0,0,0,9-1.66A17.35,17.35,0,0,1,63,138.26l-.71-.66-2-1.81c-2-5.53-3.92-13.25-3.92-13.25-2.25-3.42-1.25-12.16-1.25-12.16l4.22-4.72,2.28-2.54"/><line class="cls-4" x1="38.57" y1="112.25" x2="39.38" y2="113.99"/><line class="cls-4" x1="44.57" y1="106.25" x2="45.38" y2="107.99"/><line class="cls-4" x1="39.57" y1="102.25" x2="40.38" y2="103.99"/><line class="cls-4" x1="38.57" y1="108.25" x2="39.38" y2="109.99"/><line class="cls-4" x1="34.57" y1="116.25" x2="35.38" y2="117.99"/><line class="cls-4" x1="37.57" y1="121.25" x2="38.38" y2="122.99"/><line class="cls-4" x1="29.64" y1="102.35" x2="30.44" y2="104.08"/><line class="cls-4" x1="23.55" y1="113.99" x2="24.55" y2="116.25"/><line class="cls-4" x1="17.8" y1="121.14" x2="19.05" y2="122.99"/><line class="cls-4" x1="48.47" y1="126.49" x2="49.8" y2="128.22"/><line class="cls-4" x1="50.8" y1="118.99" x2="52.67" y2="121.14"/><line class="cls-4" x1="47.72" y1="131.49" x2="49.14" y2="132.49"/><line class="cls-4" x1="52.76" y1="128.22" x2="53.55" y2="129.24"/><line class="cls-4" x1="36.05" y1="129.24" x2="37.57" y2="129.87"/><line class="cls-4" x1="37.57" y1="134.06" x2="38.98" y2="135.24"/><line class="cls-4" x1="16.2" y1="108.25" x2="17.03" y2="109.99"/><line class="cls-4" x1="26.2" y1="127.35" x2="27.2" y2="128.22"/><line class="cls-4" x1="28.03" y1="132.49" x2="28.68" y2="133.46"/><line class="cls-4" x1="20.2" y1="131.49" x2="21.74" y2="132.49"/><line class="cls-4" x1="21.86" y1="137.04" x2="23.01" y2="138.29"/><line class="cls-4" x1="28.03" y1="68.22" x2="28.68" y2="69.39"/><line class="cls-4" x1="34.57" y1="77.55" x2="35.38" y2="79.05"/><line class="cls-4" x1="22.44" y1="78.3" x2="23.01" y2="80.04"/><line class="cls-4" x1="16.62" y1="88.05" x2="17.03" y2="89.65"/><line class="cls-4" x1="10.53" y1="53.66" x2="11.37" y2="54.72"/><line class="cls-4" x1="9.54" y1="68.22" x2="10.53" y2="69.39"/><line class="cls-4" x1="23.55" y1="53.66" x2="24.55" y2="54.72"/><line class="cls-4" x1="31.53" y1="31.72" x2="32.37" y2="31.72"/><line class="cls-4" x1="17.8" y1="25.22" x2="18.43" y2="26.22"/><line class="cls-4" x1="32.37" y1="44.89" x2="33.03" y2="45.89"/><line class="cls-4" x1="12.2" y1="32.89" x2="12.87" y2="33.95"/><line class="cls-4" x1="26.2" y1="6.89" x2="26.7" y2="7.72"/><line class="cls-4" x1="7.53" y1="11.39" x2="8.37" y2="12.39"/><line class="cls-4" x1="26.7" y1="17.55" x2="27.2" y2="18.55"/><line class="cls-3" x1="121.24" y1="188.89" x2="110.83" y2="191.2"/><line class="cls-3" x1="70.57" y1="210.92" x2="67.32" y2="215.19"/><line class="cls-3" x1="94.75" y1="215.06" x2="91.58" y2="211.27"/><line class="cls-3" x1="100.12" y1="186.78" x2="107.32" y2="182.54"/><line class="cls-3" x1="55.28" y1="213.16" x2="61.7" y2="209.38"/><line class="cls-3" x1="73.43" y1="184.47" x2="70.62" y2="179.06"/><line class="cls-3" x1="56.18" y1="181.84" x2="62.86" y2="186.28"/><line class="cls-3" x1="47.79" y1="192.99" x2="36.81" y2="191.32"/><line class="cls-3" x1="33.93" y1="200.62" x2="45.38" y2="199.97"/><line class="cls-3" x1="99.34" y1="209.11" x2="106.03" y2="213.06"/><line class="cls-3" x1="112.62" y1="203.38" x2="123.28" y2="205.18"/><line class="cls-3" x1="126.83" y1="199.26" x2="115.41" y2="198.94"/></g></g></svg>