<svg xmlns="http://www.w3.org/2000/svg" viewBox="0 0 103.52 103.52"><defs><style>.cls-1{fill:#1d1d1b;stroke:#1d1d1b;stroke-miterlimit:10;}.cls-2{fill:#fff;}</style></defs><title>Asset 6</title><g id="Layer_2" data-name="Layer 2"><g id="Layer_1-2" data-name="Layer 1"><circle class="cls-1" cx="51.76" cy="51.76" r="51.26"/><circle class="cls-2" cx="27.32" cy="45.86" r="0.69"/><circle class="cls-2" cx="39.97" cy="74.09" r="1.17"/><circle class="cls-2" cx="14.47" cy="58.71" r="1.03"/><circle class="cls-2" cx="43.76" cy="57.86" r="0.69"/><circle class="cls-2" cx="45.61" cy="44.05" r="0.69"/><circle class="cls-2" cx="21.81" cy="72.72" r="0.69"/><circle class="cls-2" cx="46.81" cy="89.72" r="0.69"/><circle class="cls-2" cx="38.82" cy="32.98" r="1.04"/><circle class="cls-2" cx="16.47" cy="41.06" r="0.97"/><circle class="cls-2" cx="70.7" cy="54.01" r="0.69"/><circle class="cls-2" cx="83.35" cy="82.24" r="1.17"/><circle class="cls-2" cx="57.85" cy="66.86" r="1.03"/><circle class="cls-2" cx="87.14" cy="66.01" r="0.69"/><circle class="cls-2" cx="88.99" cy="52.2" r="0.69"/><circle class="cls-2" cx="65.19" cy="80.87" r="0.69"/><circle class="cls-2" cx="94.19" cy="43.87" r="0.69"/><circle class="cls-2" cx="82.21" cy="41.13" r="1.04"/><circle class="cls-2" cx="72.85" cy="18.21" r="0.97"/><circle class="cls-2" cx="42.35" cy="21.85" r="0.69"/><circle class="cls-2" cx="55" cy="50.08" r="1.17"/><circle class="cls-2" cx="12.5" cy="30.7" r="1.03"/><circle class="cls-2" cx="58.79" cy="33.85" r="0.69"/><circle class="cls-2" cx="60.64" cy="20.04" r="0.69"/><circle class="cls-2" cx="36.84" cy="48.71" r="0.69"/><circle class="cls-2" cx="65.84" cy="44.71" r="0.69"/><circle class="cls-2" cx="53.85" cy="8.97" r="1.04"/><circle class="cls-2" cx="31.5" cy="17.05" r="0.97"/></g></g></svg>